<svg xmlns="http://www.w3.org/2000/svg" width="27.846" height="27.846" viewBox="0 0 27.846 27.846">
    <path d="M8.7 23.006H4.9V10.714h3.8zM9.082 6.8a2.23 2.23 0 1 0-2.229 2.23A2.23 2.23 0 0 0 9.082 6.8zm13.869 9.445c0-3.3-.7-5.747-4.552-5.747a3.951 3.951 0 0 0-3.6 1.89v-1.674h-3.7v12.292h3.7V16.9c0-1.6.407-3.147 2.388-3.147 1.954 0 2.017 1.828 2.017 3.248v6h3.753zm4.895 8.339V3.263A3.267 3.267 0 0 0 24.583 0H3.263A3.267 3.267 0 0 0 0 3.263v21.32a3.267 3.267 0 0 0 3.263 3.263h21.32a3.267 3.267 0 0 0 3.263-3.263zM24.583 2.175a1.089 1.089 0 0 1 1.088 1.088v21.32a1.089 1.089 0 0 1-1.088 1.088H3.263a1.089 1.089 0 0 1-1.088-1.088V3.263a1.089 1.089 0 0 1 1.088-1.088zm0 0"/>
</svg>
