<svg xmlns="http://www.w3.org/2000/svg" width="32.037" height="26.45" viewBox="0 0 32.037 26.45">
    <path d="M12.19 26.449c-5.347 0-9.573-.934-11.595-2.562l-.039-.032-.036-.036a1.645 1.645 0 0 1-.431-1.729l.019-.051a1.675 1.675 0 0 1 1.528-1.051 13.805 13.805 0 0 0 3.65-.5 6.929 6.929 0 0 1-3.651-4.219 1.5 1.5 0 0 1 .522-1.744 1.527 1.527 0 0 1 .455-.233A10.1 10.1 0 0 1 .54 10.575l-.012-.042-.009-.043a1.557 1.557 0 0 1 .722-1.67 1.551 1.551 0 0 1 .738-.208 7.812 7.812 0 0 1-.59-1.8 7.533 7.533 0 0 1 .8-5.019l.2-.4a1.108 1.108 0 0 1 1.774-.288l.362.362a17.082 17.082 0 0 0 9.85 5.394 7.847 7.847 0 0 1 2.118-4.524A7.433 7.433 0 0 1 21.8 0h.013A10.63 10.63 0 0 1 26.2 1.428c.944-.309 2.081-.787 3.261-1.293a1.49 1.49 0 0 1 1.667.294 1.464 1.464 0 0 1 .318 1.609q-.129.358-.291.7a1.492 1.492 0 0 1 .434.3 1.611 1.611 0 0 1 .4 1.506l-.014.051a6.146 6.146 0 0 1-2.47 3.389C29.314 18.2 21.62 26.449 12.19 26.449zM2.4 22.84c1.905 1.078 5.536 1.73 9.793 1.73a14.669 14.669 0 0 0 10.875-4.948 17.727 17.727 0 0 0 4.563-12.028v-.051a1.107 1.107 0 0 1 .591-.979 3.989 3.989 0 0 0 1.726-1.91 1.108 1.108 0 0 1-1.068-1.745 6.1 6.1 0 0 0 .419-.663c-1.019.428-1.987.812-2.827 1.067a1.2 1.2 0 0 1-.924-.1 9.153 9.153 0 0 0-3.728-1.334A5.842 5.842 0 0 0 16.2 7.8a1.108 1.108 0 0 1-1.323 1.087C9.772 7.88 6.746 6.371 3.6 3.209a5.547 5.547 0 0 0-.366 3.244A6.855 6.855 0 0 0 4.86 9.608a1.108 1.108 0 0 1-1.118 1.8 5.074 5.074 0 0 1-1.033-.4 9.36 9.36 0 0 0 3.209 3.722 1.108 1.108 0 0 1-.709 2.018 4.981 4.981 0 0 1-1.47-.318 5.052 5.052 0 0 0 4.031 2.861 1.108 1.108 0 0 1 .33 2.071 13.312 13.312 0 0 1-5.7 1.478zm0 0"/>
</svg>
