<?xml version="1.0" encoding="utf-8"?>
<!-- Generator: Adobe Illustrator 18.1.0, SVG Export Plug-In . SVG Version: 6.00 Build 0)  -->
<svg version="1.1" id="Layer_1" xmlns="http://www.w3.org/2000/svg" xmlns:xlink="http://www.w3.org/1999/xlink" x="0px" y="0px"
	 viewBox="0 0 841 402.6" enable-background="new 0 0 841 402.6" xml:space="preserve">
<g>
	<g>
		<line fill="#010103" x1="432.9" y1="29.2" x2="432.9" y2="31.1"/>
		<path fill="#010103" d="M45,91.8H0v-1.9h3.3c4.6,0,6.3-1.5,6.3-6.6V38.6c0-5.3-1.6-7.6-8-7.6H0.3v-1.9H30v1.9h-3.7
			c-6.5,0-8.3,0.7-8.3,6.9v46.4c0,2.7,1.1,3.7,4,3.7h14.8c5.9,0,7.8-2.3,14.1-11.1h1.8L45,91.8z"/>
		<path fill="#010103" d="M88.2,93.4c-19.7,0-36.4-12.7-36.4-31.5c0-20,15.4-34.2,36.9-34.2c19,0,35.3,13,35.3,31.1
			C124.1,79.1,107.8,93.4,88.2,93.4 M86.1,30.2c-17.7,0-24.8,16.5-24.8,28.6c0,18.8,12.8,32.1,29,32.1c16.4,0,24.3-14.5,24.3-28.8
			C114.6,43.4,102.7,30.2,86.1,30.2"/>
		<path fill="#010103" d="M190.5,92.5l-52.2-54.6v43.2c0,7.2,1.6,8.8,10.2,8.8v1.9h-23.4v-1.9h0.4c6.2,0,8.3-2.1,8.3-6.8V33.6
			c-2.3-1.6-4.9-2.4-8.5-2.5v-1.9h15.8l47.4,49.4V38.5c0-6.1-1.8-7.3-9.9-7.5v-1.9h23.6v1.9c-7.6,0-9.2,1.3-9.2,5.2v56.2H190.5z"/>
		<path fill="#010103" d="M216.6,39.2c0-6.5-1.7-8.2-7.7-8.2h-2v-1.9c3.7-0.2,8.7-0.4,14.2-0.6c5.5-0.2,11.7-0.3,16.9-0.3
			c26.6,0,38.4,13.5,38.4,30.1c0,15.2-11.8,33.4-37.3,33.4h-32.2v-1.9h1.7c5.4,0,8-1.5,8-7.4V39.2z M224.9,84.4
			c0,4.1,0.3,5.5,8.3,5.5c13.5,0,19.1-1.9,25.4-8.2c3.7-3.6,8.4-11.4,8.4-21.7c0-7.5-2.1-15.7-8.1-21.7c-4.6-4.6-11.8-8.2-25.9-8.2
			c-4.1,0-6.8,0.3-8.1,0.4V84.4z"/>
		<path fill="#010103" d="M318.9,93.4c-19.7,0-36.4-12.7-36.4-31.5c0-20,15.4-34.2,36.9-34.2c19,0,35.3,13,35.3,31.1
			C354.7,79.1,338.4,93.4,318.9,93.4 M316.8,30.2C299,30.2,292,46.7,292,58.8c0,18.8,12.8,32.1,29,32.1c16.4,0,24.3-14.5,24.3-28.8
			C345.3,43.4,333.4,30.2,316.8,30.2"/>
		<path fill="#010103" d="M432.9,31.1c-7.6,0-9.2,1.3-9.2,5.2v56.2h-2.6L369,37.9v43.2c0,7.2,1.6,8.8,10.2,8.8v1.9h-23.4v-1.9h0.4
			c6.2,0,8.3-2.1,8.3-6.8V33.6c-2.3-1.6-4.9-2.4-8.5-2.5v-1.9h15.8l47.4,49.4V38.5c0-6.1-1.8-7.3-9.9-7.5v-1.9h23.6"/>
		<path fill="#010103" d="M74.8,389.6v-1.7h-0.9c-5.4,0-7.2-1.4-7.2-7.8V343c0-5.5,1.4-7.2,6.8-7.3v-1.7H59.2l-21.5,45.2l-21.6-45.2
			H2.7v1.6c4.4,0.3,5.4,1.4,5.4,4.8v41.5c0,4.1-1.8,6-7.3,6H0.4v1.7h20.8v-1.7c-7.6,0-9-1.3-9-7.8v-38.3h0l22.8,47.8H37l22.3-47.8h0
			v39.3c0,4.7-1.3,6.7-7.1,6.7h-2.8v1.7H74.8z"/>
		<path fill="#010103" d="M123.4,389.6l1.4-13.3h-1.6c-2.2,7.7-4.1,10.1-10.4,10.1H99c-3.3,0-4.8-0.8-4.8-4.9v-19.1h15.1
			c3.7,0,5.4,0.7,6.1,7.1h1.7v-17h-1.7c-0.5,5.2-2,6.7-5.2,6.7h-16v-22h18.9c3.2,0,5.5,1.6,6.6,9.2h1.6l-0.7-12.4H77.6v1.7h2
			c6,0,7.2,2.1,7.2,7.2v37.8c0,5.4-1.3,7.3-8.4,7.3h-0.7v1.7H123.4z M181.8,361.3c0,9.2-4.1,16.1-7.4,19.3
			c-5.5,5.5-10.6,7.2-22.5,7.2c-7.1,0-7.3-1.3-7.3-4.9v-47.8c1.1-0.1,3.5-0.4,7.2-0.4c12.5,0,18.9,3.1,23,7.2
			C179.9,347.4,181.8,354.7,181.8,361.3 M190.2,359.9c0-14.8-10.5-26.7-34.1-26.7c-4.7,0-10.1,0.1-15,0.3c-4.9,0.2-9.3,0.3-12.6,0.5
			v1.7h1.8c5.3,0,6.8,1.4,6.8,7.2v38.5c0,5.2-2.2,6.5-7.1,6.5h-1.5v1.7h28.6C179.7,389.6,190.2,373.4,190.2,359.9 M194.1,389.6h21.7
			v-1.7c-6.2,0-7.6-1.8-7.6-7.1v-37.9c0-6,2-7.2,7.6-7.2v-1.7h-21.7v1.7c5,0.3,6.7,1.6,6.7,6.4v38.1c0,6-1.2,7.4-6.7,7.7V389.6z
			 M270.4,388.6c2.1-3.5,4.6-9,5.7-13.1h-1.7c-6.1,10.8-14.8,13.2-21.8,13.2c-13.6,0-25.2-11.9-25.2-28.1c0-15,9.3-25.9,24.2-25.9
			c9.8,0,17.4,5.5,20.4,13.8h1.7l-0.8-13h-1.3c-0.2,0.3-0.6,0.5-1.6,0.5c-2.8,0-7.6-3.6-18.9-3.6c-18.7,0-32.1,12.5-32.1,29.9
			c0,16.6,13.1,28.5,31.2,28.5C260.7,391,264.7,387.8,270.4,388.6 M279.5,389.6h21.7v-1.7c-6.2,0-7.6-1.8-7.6-7.1v-37.9
			c0-6,2-7.2,7.6-7.2v-1.7h-21.7v1.7c5,0.3,6.7,1.6,6.7,6.4v38.1c0,6-1.2,7.4-6.7,7.7V389.6z M374.5,335.6v-1.7h-20.9v1.7
			c7.2,0.2,8.8,1.2,8.8,6.6v35.6l-42.1-43.9h-14v1.7c3.1,0.1,5.5,0.8,7.5,2.2v44c0,4.1-1.8,6-7.3,6h-0.4v1.7h20.8v-1.7
			c-7.6,0-9-1.3-9-7.8v-38.4l46.3,48.5h2.3v-49.9C366.3,336.8,367.8,335.6,374.5,335.6 M393.7,381.4v-19.1h15.1
			c3.7,0,5.4,0.7,6.1,7.1h1.7v-17h-1.7c-0.4,5.2-2,6.7-5.2,6.7h-16v-22h18.9c3.2,0,5.5,1.6,6.6,9.2h1.6l-0.7-12.4h-42.9v1.7h2
			c6,0,7.2,2.1,7.2,7.2v37.8c0,5.4-1.3,7.3-8.4,7.3h-2.5v1.7h47.5l1.4-13.3h-1.6c-2.2,7.7-4.1,10.1-10.4,10.1h-13.8
			C395.3,386.4,393.7,385.6,393.7,381.4"/>
		<path fill="#010103" d="M36.2,307.3c-3.6,3.1-8.5,4.7-13.3,4.7c-9.5,0-19-8.3-19-18.1c0-4.3,3.4-10.1,8.1-10.1
			C14.7,283.8,20.4,293.8,36.2,307.3 M60,313.7L60,313.7L60,313.7c0,0-2.9,0.3-4.6,0.2c-0.8,0-1.6-0.3-1.6-0.3
			c-0.3-0.1-0.7-0.3-1-0.5c-0.1,0-0.1-0.1-0.2-0.1c-0.4-0.2-0.7-0.4-1.1-0.7c-0.1-0.1-0.2-0.1-0.2-0.2c-0.3-0.2-0.7-0.5-1.1-0.8
			c0,0-0.1-0.1-0.1-0.1c-0.4-0.3-0.8-0.6-1.2-0.9c-0.1-0.1-0.2-0.2-0.3-0.2l-1.1-0.9c-0.1-0.1-0.2-0.2-0.3-0.3
			c-0.3-0.3-0.6-0.5-0.9-0.8c-0.1-0.1-0.2-0.2-0.3-0.3c-0.3-0.3-0.6-0.5-0.9-0.8c-1.2-1.1-2.2-2-3-2.6c2.4-4.2,3-9,3.5-13.6
			c0.3-2.9,2.1-2.8,3-3v-1.3l0,0H35.2v1.3c1,0.2,6.6-0.3,6.6,7.2c0,3.1-0.3,5.8-2.1,7.9c-16-14.8-27-26.5-27-31.5c0-3.5,2.7-5.9,6-6
			c5.2,0.1,9.9,3.6,12,9H32l-1.3-9.7h-1.2c-0.5,0.6-0.8,0.8-1.4,0.8c-2.2,0-3.6-1.3-7.7-1.7h0c-1-0.1-1.8-0.1-1.8-0.1
			c-5.6,0-10.2,3.8-10.2,9.9c0,3.1,1.5,6.1,3.4,8.4C3.9,283.7,0,289.8,0,297.7c0,11.5,9.5,18.7,20.4,18.7c7.3,0,12.9-2.5,18.2-7.5
			c3.9,3.2,7.9,7.2,13.2,7.5h0.1c0.2,0,0.3,0,0.4,0l0.1,0c0,0,0.1,0,0.2,0l0.1,0v0c0,0,2-0.1,4.4-0.5c1.3-0.3,2.9-0.7,2.9-0.7V313.7
			z"/>
		<path fill="#010103" d="M1.8,152.4c1.9,7.9,8.1,12.6,15.1,12.6c6,0,12.3-3.5,12.3-10.5c0-12.8-28.6-16.8-28.6-32.4
			c0-7.4,6.8-12.9,15.9-12.9c7.5,0,9,2.2,12.1,2.2c0.7,0,1.1-0.2,1.6-0.9h1.4l1.5,11.3h-1.5c-2.5-6.4-8.2-10.5-14.4-10.5
			c-5.9,0-10,3.4-10,8.4c0,12.7,28.6,16,28.6,32.4c0,8.7-7.8,15.2-18.2,15.2c-4.9,0-11.1-2.4-12.4-2.4c-0.8,0-1.4,0.5-1.8,1H2
			l-1.9-13.6H1.8z"/>
		<path fill="#010103" d="M93.4,125.1c-2.9-8.3-10.6-13.7-20.3-13.7c-14.9,0-24.2,10.8-24.2,25.8c0,16.1,11.6,28,25.1,28
			c7,0,15.7-2.4,21.7-13.2h1.7c-1.2,4-3.6,9.5-5.7,13c-5.7-0.8-9.6,2.4-20.2,2.4c-18.1,0-31.1-11.9-31.1-28.4
			c0-17.3,13.4-29.8,32-29.8c11.2,0,16,3.6,18.8,3.6c1,0,1.4-0.3,1.6-0.5h1.3l0.8,12.9H93.4z"/>
		<path fill="#010103" d="M114.5,139.5v16.9c0,5.8,1.2,7.8,7.1,7.8h0.3v1.7H99.5v-1.7h0.5c5.3,0,7-1.4,7-6.5v-39.2
			c0-4.6-1.5-6-6.4-6.3v-1.7h21.2v1.7c-6.3,0-7.4,1.7-7.4,8.6v15.5h35v-17.6c0-4.7-1.5-6.5-7-6.5h-1.7v-1.7h22.9v1.7
			c-5.3,0.2-6.8,1.8-6.8,7.3v37c0,6.3,1.8,7.8,7.1,7.8h0.9v1.7h-25.2v-1.7h2.8c5.8,0,7-2.1,7-6.7v-18.1H114.5z"/>
		<path fill="#010103" d="M199.2,167.4c-17.5,0-32.2-11.2-32.2-27.9c0-17.7,13.6-30.3,32.6-30.3c16.9,0,31.3,11.5,31.3,27.6
			C231,154.7,216.5,167.4,199.2,167.4 M197.3,111.4c-15.7,0-21.9,14.6-21.9,25.3c0,16.7,11.3,28.4,25.7,28.4
			c14.5,0,21.5-12.8,21.5-25.5C222.6,123.1,212,111.4,197.3,111.4"/>
		<path fill="#010103" d="M268.8,167.4c-17.5,0-32.2-11.2-32.2-27.9c0-17.7,13.6-30.3,32.6-30.3c16.9,0,31.3,11.5,31.3,27.6
			C300.5,154.7,286.1,167.4,268.8,167.4 M266.9,111.4c-15.7,0-21.9,14.6-21.9,25.3c0,16.7,11.3,28.4,25.7,28.4
			c14.5,0,21.5-12.8,21.5-25.5C292.1,123.1,281.6,111.4,266.9,111.4"/>
		<path fill="#010103" d="M341.8,165.9H302v-1.7h2.9c4.1,0,5.6-1.3,5.6-5.9v-39.5c0-4.7-1.4-6.7-7-6.7h-1.2v-1.7h26.3v1.7h-3.3
			c-5.8,0-7.3,0.6-7.3,6.1v41.1c0,2.4,1,3.3,3.6,3.3h13.1c5.3,0,6.9-2,12.5-9.8h1.6L341.8,165.9z"/>
		<path fill="#010103" d="M378.8,122.1c2.6,0,8.1,3.6,8.1,13.1c0,16.9-16.8,24.3-21,24.3c-4.2,0-7.9-6.7-7.9-14.1
			C358,131.1,373.5,122.1,378.8,122.1 M374.3,125.4c-5.6,0-10.6,10.8-10.6,19.7c0,7.5,3.2,11.1,6.2,11.1c7.1,0,11.3-11.6,11.3-19.8
			C381.2,130.3,378.2,125.4,374.3,125.4"/>
		<path fill="#010103" d="M391.5,127.1l0.3-1.5c2.1-0.2,4.3-0.5,6.5-1c1.3-6.4,4-13,9-17.4c3.1-2.7,7-4.2,10.5-4.2
			c3.5,0,6.3,1.7,6.3,3.7c0,1.2-1.1,2.3-2.5,2.3c-2.9,0-5.3-3.2-7.9-3.2c-3.5,0-6.3,3.4-7.6,8.5l-2.4,10.2h7.7l-0.9,2.6h-7.3
			l-4.5,22.7c-3.5,17.4-13.6,23.6-22,23.6c-3.7,0-6.9-1.6-6.9-3.6c0-1.2,1.4-2.3,2.9-2.3c3.3,0,5.1,3.4,8.5,3.4
			c2.1,0,3.8-0.9,5.4-2.2c4.5-3.9,6.2-17.1,6.5-19l4.5-22.5H391.5z"/>
		<path fill="#010103" d="M16.6,216.8v18.8c0,6.4,1.3,8.7,7.9,8.7h0.3v1.9H0v-1.9h0.6c5.8,0,7.8-1.6,7.8-7.2v-43.5
			c0-5.1-1.7-6.6-7.1-7v-1.9h23.5v1.9c-7,0-8.2,1.9-8.2,9.5v17.2h38.7v-19.5c0-5.2-1.7-7.2-7.8-7.2h-1.9v-1.9h25.4v1.9
			c-5.9,0.2-7.5,2-7.5,8.1v41c0,7,2,8.6,7.9,8.6h1v1.9h-28v-1.9h3.1c6.4,0,7.8-2.3,7.8-7.4v-20.1H16.6z"/>
		<path fill="#010103" d="M125.9,193.7c3.2-5.4,1.3-7.1-5-7.1v-1.9h22.3v1.9c-6.7,0.5-9.6,3.2-12.4,7.8l-16.4,27.8V237
			c0,5.2,1.9,7.3,7.9,7.3h1.3v1.9H96.4v-1.9h1.9c6.1,0,7.9-2.3,7.9-7.1v-13.9l-17.6-27.5c-4.9-7.6-7.1-9-13.5-9.2v-1.9h26.3v1.9
			c-7.7,0-8.2,1.9-5.2,6.4l15.8,24.4L125.9,193.7z"/>
		<path fill="#010103" d="M195.8,241.5c-9.8,5-22.3,6.2-26.5,6.2c-21.6,0-31.7-16.7-31.7-31.1c0-14.8,10.4-33.4,34.5-33.4
			c10.6,0,17.6,3.4,19.7,3.4c0.9,0,1.7-0.2,2.3-0.7h1.4v16h-2c-2.7-12.4-11.1-16.2-20.3-16.2c-17.4,0-26.3,14.4-26.3,30.3
			c0,20.3,14.2,29.3,25.6,29.3c4.5,0,9.6-1,15.1-3.8v-12.5c0-5.6-2-7.5-7.9-7.5h-3.7v-1.8h26.7v1.8c-4.9,0.3-6.9,2-6.9,6.2V241.5z"
			/>
		<path fill="#010103" d="M229.3,246.2h-24v-1.9c6.1-0.3,7.4-1.9,7.4-8.5v-42.1c0-5.3-1.9-6.8-7.4-7.1v-1.9h24v1.9
			c-6.2,0-8.4,1.4-8.4,8v41.9c0,5.8,1.6,7.8,8.4,7.8V246.2z"/>
		<path fill="#010103" d="M279.2,223.9h-1.9c-0.8-7-2.7-7.8-6.7-7.8h-16.7v21.1c0,4.5,1.7,5.4,5.3,5.4h15.2c6.9,0,9-2.7,11.5-11.2
			h1.8l-1.6,14.7h-52.5v-1.9h2.8c7.9,0,9.3-2.2,9.3-8.1v-41.7c0-5.5-1.3-7.9-7.9-7.9h-2.2v-1.9H283l0.8,13.7h-1.8
			c-1.3-8.4-3.8-10.2-7.3-10.2h-20.8v24.3h17.7c3.6,0,5.2-1.7,5.7-7.4h1.9V223.9z"/>
		<path fill="#010103" d="M356.3,246.9l-51.2-53.6v42.4c0,7.1,1.6,8.6,10,8.6v1.9h-22.9v-1.9h0.4c6.1,0,8.1-2.1,8.1-6.6v-48.6
			c-2.3-1.6-4.8-2.4-8.3-2.5v-1.9h15.5l46.5,48.5v-39.3c0-6-1.8-7.1-9.7-7.3v-1.9h23.1v1.9c-7.4,0-9,1.3-9,5.1v55.1H356.3z"/>
		<path fill="#010103" d="M415.9,223.9H414c-0.8-7-2.7-7.8-6.7-7.8h-16.7v21.1c0,4.5,1.7,5.4,5.3,5.4h15.2c6.9,0,9-2.7,11.5-11.2
			h1.8l-1.6,14.7h-52.5v-1.9h2.8c7.9,0,9.3-2.2,9.3-8.1v-41.7c0-5.5-1.3-7.9-7.9-7.9h-2.2v-1.9h47.4l0.8,13.7h-1.8
			c-1.3-8.4-3.8-10.2-7.3-10.2h-20.8v24.3h17.7c3.6,0,5.2-1.7,5.7-7.4h1.9V223.9z"/>
		<path fill="#010103" d="M80.8,307.8c0,4.4,1.5,5.9,6.4,5.9h3v1.5H64.7v-1.5h3c4.9,0,6.4-1.5,6.4-5.9v-40H60c-3.2,0-4.7,1.9-5.9,9
			h-1.5l1.3-13.1h1.5c0.1,0.5,0.4,0.8,0.9,1c0.5,0.2,1.1,0.2,1.6,0.2h38.9c1.1,0,2.3-0.2,2.5-1.2h1.5l1.3,13.1h-1.5
			c-1.2-7.1-2.7-9-5.9-9H80.8V307.8z"/>
		<path fill="#010103" d="M119.4,307.7c0,4.9,1.9,6.1,6.5,6.1h1.9v1.5h-22.9v-1.5h1.4c4.8,0,6.5-1.3,6.5-6.7V273
			c0-5-1.4-6.5-6.1-6.5h-1.8V265c2,0,6.9-0.3,10.2-0.5c3.3-0.2,4.9-0.2,10.2-0.2c15,0,21.7,6.2,21.7,14.4c0,6.1-4.1,11.2-10.8,13.1
			c3,2.3,5.4,4.6,9.2,8.4l6.4,6.4c4.8,4.8,9.7,7.8,15.9,8.2v1.5c-14.2,0.6-17.8-2.4-25-9.6l-5.3-5.3c-3.6-3.6-6.4-5.9-8.3-7.2
			c-2,0.1-3.3,0.2-5.5,0.2c-1.8,0-2.8-0.1-4.1-0.2V307.7z M119.4,292.5c1.9,0.2,3.2,0.2,5,0.2c9,0,14.9-3.8,14.9-13.5
			c0-7.5-3.4-13.3-15.9-13.3c-1.5,0-2.6,0-4,0.2V292.5z"/>
		<path fill="#010103" d="M186.6,316.6c-15.8,0-29.2-10.2-29.2-25.3c0-16.1,12.4-27.5,29.6-27.5c15.3,0,28.4,10.4,28.4,25
			C215.4,305.1,202.3,316.6,186.6,316.6 M184.9,265.8c-14.2,0-19.9,13.3-19.9,23c0,15.1,10.3,25.8,23.3,25.8
			c13.2,0,19.5-11.6,19.5-23.1C207.8,276.4,198.3,265.8,184.9,265.8"/>
		<path fill="#010103" d="M229.3,307.5c0,4.5,1.4,6.2,6.5,6.2h2.7v1.5h-22.4v-1.5h1.1c4.2,0,5.4-0.9,5.4-4.7v-38.3
			c0-3-1-4.3-3.8-4.3h-4V265c2.3-0.1,6.2-0.3,10.2-0.5c4-0.2,7.8-0.2,10-0.2c16.9,0,20.8,8.1,20.8,14.3c0,9.5-7.6,15.5-19.6,15.5
			c-2.4,0-4.5-0.2-6.9-0.7V307.5z M229.3,291.8c1.1,0.2,2.8,0.6,4.4,0.6c8.8,0,14.5-6,14.5-14.2c0-6.3-2.5-12.5-13.3-12.5
			c-1.9,0-3.6,0-5.6,0.3V291.8z"/>
		<path fill="#010103" d="M278.9,315.3h-19.7v-1.5c5-0.2,6.1-1.5,6.1-7v-34.5c0-4.4-1.5-5.6-6.1-5.8V265h19.7v1.5
			c-5.1,0-6.9,1.1-6.9,6.6v34.3c0,4.8,1.3,6.4,6.9,6.4V315.3z"/>
		<path fill="#010103" d="M329,278.2c-2.7-7.5-9.6-12.5-18.4-12.5c-13.5,0-21.9,9.8-21.9,23.4c0,14.6,10.5,25.4,22.8,25.4
			c6.4,0,14.2-2.2,19.7-12h1.5c-1.1,3.6-3.2,8.7-5.2,11.8c-5.2-0.7-8.7,2.2-18.3,2.2c-16.4,0-28.2-10.8-28.2-25.8
			c0-15.7,12.1-27,29-27c10.2,0,14.6,3.2,17.1,3.2c0.9,0,1.3-0.2,1.5-0.5h1.2l0.7,11.7H329z"/>
		<path fill="#010103" d="M347.9,293l-4.7,12.7c-0.6,1.5-1.6,4-1.6,5.1c0,2.2,2.1,3,6.6,3h1.3v1.5h-18.7v-1.5c5.3-0.1,6.1-1,8.7-8
			l14.7-40.2l-0.7-1.8h7l16.9,44.9c1.6,4.3,3.3,5.1,7.4,5.1v1.5h-22.2v-1.5h2.1c4.6,0,6.3-0.5,6.3-2.7c0-1.3-0.6-2.5-0.9-3.3
			l-5.4-14.7H347.9z M356.1,270.6l-6.9,18.8h14L356.1,270.6z"/>
		<path fill="#010103" d="M422.2,315.3H386v-1.5h2.7c3.7,0,5.1-1.2,5.1-5.3v-35.8c0-4.3-1.3-6.1-6.4-6.1h-1.1V265h23.9v1.5h-3
			c-5.3,0-6.6,0.6-6.6,5.6v37.3c0,2.2,0.9,3,3.2,3h11.9c4.8,0,6.2-1.9,11.3-8.9h1.5L422.2,315.3z"/>
	</g>
	<g>
		<path fill="#010103" d="M580.4,82.7c0,0,7.3-15.6,21.5-23.8c4.5-2.5,8.8-5.1,14.1-5.2c13.1-0.2,20.3,4.5,24.5,11.5
			c0.5,0.8,0.9,1.6,1.3,2.4c0.3,0.5,0.5,2.1,0.6,4.6c-0.2,0.6-0.5,1.2-0.8,1.3c-0.8,0.3-1.7-0.3-2.3,0.6c-0.7,1-0.2,1.9,0.1,2.3
			c0.3,0.4,0.7,1.7-0.1,3.9c-0.2,0.6-0.6,1.2-1,1.9c-1.8,3.1-3.9,6-5.3,9c-1.9,4.1-2.8,7.9-3.1,8.5c-0.4,1.1-1.5,9.6-1.5,11.2
			c0,1,0.1,3,0.2,4.8c0.1,1.1,0.3,2.3,0.3,2.6c0,1,0,1.6-1.2,2c-0.3,0.1-1.8,0-4,0c-2.4,0-5.6,0-8.3-0.2c-3.3-0.2-6.2-0.6-6.6-0.7
			c-1.1-0.2-1.1-0.5-1.4-1.1c-0.4-0.7,0.2-2.3-0.4-2.3c-0.6,0-1.8,1.3-2.6,2.1c-0.7,0.8-2.3,1.1-1.9,1.5c1.3,1.3,3.8,4.7,4,4.1
			c0.3-0.7-0.1-2.2,1.5-2.9c0.6-0.3,6.3,0.3,11.5,0.5c1.8,0.1,3.8,0.6,6.4,0.4c0.9-0.1,1.8,0.2,2.7,0.1c5.5-0.5,8.6,0.2,10.8,0.8
			c1.2,0.3,2.1,0.7,3.1,0.9v0h0.1c1.1,0.3,2.1,0.5,3.5,0.4c1.4-0.1,2.8,0,4.1-0.1c2.4-0.3,5.4-1.1,7.5-1.6c5.1-1.1,7.3-1.8,8-1.9
			c0.6-0.1,2.3-0.4,4.1-0.5c2.2-0.2,4.7-0.3,6.3-0.3c1.8,0,7,0.4,11.4,0.7c1.1,0.1,2.2,0.3,3.1,0.4c1.6,0.1,2.8-0.2,3.4-0.3
			c2.5-0.4,4.3-1.7,5.5-2.8c0.7-0.6,1.3-1.1,1.5-1.3c0.7-0.7,4-2.1,4.2-2.8c0-0.1-0.1-0.3-0.4-0.3c-0.6-0.1-1.8-0.1-2.9,0
			c-1.4,0-3,0.4-4.1,0.5c-1.2,0.2-7.7,1.6-11.1,2.5c-0.6,0.2-1.1,0-1.7,0.1c-1.9,0.4-3.6,0.6-5.1,0.9c-1.7,0.3-3.1,0.4-3.5,0.4
			c-2,0.1-4.5,0-6.1,0c-2.7-0.1-5.5-0.3-6.7-0.4c-2.2-0.1-5.3-0.9-6.4-1.1c-0.1,0-0.1-0.1-0.2-0.1h0c-0.6-0.2-2.1,0.1-4.3,1
			c-0.8,0.3-1.3,0.6-1.7,1l0,0c-0.3,0.3-0.6,0.6-0.9,1l0,0.1c0,0.1-0.1,0.1-0.1,0.2h0c-0.3,0.5-0.6,1-0.9,1.4
			c-0.7,0.8-1.9,0.2-2.6-0.1c-0.1,0-0.2-0.1-0.3-0.2c-0.3-0.4-0.5-0.7-0.6-1.1c-0.1-0.6-0.2-1.2,0-1.9c0.3-0.9,0.9-1.7,1.5-2.5
			c0.1-0.1,0.2-0.3,0.3-0.4c1.9-1.6,4.5-2.4,6.5-2.8c1.4-0.3,2.4-0.5,2.6-0.6c0.1-0.1,0.2-0.1,0.3-0.2c0.4-0.2,0.6-0.4,0.6-1.1
			c-0.1-3.2-0.5-6.4-0.5-9.3c-0.1-4.5-0.3-8.6-0.3-12.3c0-3.4,0.2-6.5,0-9.2c-0.1-2.8,0.3-11.1,0.6-12c3.7-9.9,13.8-12.1,21.5-11.7
			c5,0.3,8.8,1.8,9.9,2.2c18.6,6.5,21.1,30.9,22,27.5c5.8-21.8-5.9-34.4-20.8-37.6c-21.2-4.6-34.7,10.4-35.6,11.8
			c-0.9,1.5-5-0.2-2.8-2.9c8.5-10.8,18.9-12.1,26.8-13.7c5.7-1.1,19.6,1.7,27,5.7c6.3,3.4,9.4,7.9,9.1,6.8
			c-1-3.7-4.9-19.9-27.1-21.6c-11.3-0.9-21.3,3.6-28.7,9.2c-3.9,2.9-7,6.3-9.3,9.1c-3.1,3.6-4.5,6.6-5.3,6.7
			c-1.9,0.1-5.5-5.7-13.7-9.6c-3.9-1.9-8.4-3.2-13.6-3.8c-5.3-0.6-11.4-0.3-17.3,2.1c-3.5,1.4-6.4,2.9-8.8,5.1
			c-6.7,6-9.7,15.4-10.4,22.1C579.7,79,580.4,82.7,580.4,82.7z M643.3,94.3c0,1.5-0.2,3.1-0.2,5c-0.1,7.3-0.4,16.7-1,19.9
			c-0.1,0.5-0.3,0.8-0.5,0.9c-0.2,0.1-0.4,0.3-0.7,0.4c-1.1,0.1-2.9,0.1-3.3,0.1c-0.6-0.1-1.5-0.2-1.9-0.2c-0.4,0-2,0-2.5-0.2
			c-0.8-0.3-1.1-0.8-1.5-1.6c-0.2-0.5-0.5-2-0.7-3.7c-0.1-1.4-0.2-2.9-0.3-4.2c-0.1-1.1-0.1-1.4,0.1-2.8c0.2-1.8,1.6-10.3,2.4-12
			c0.7-1.6,0.6-1.7,1.7-3.6c0.6-1.2,1.3-2.1,2.2-3.6c1-1.5,1.9-3.1,2.5-4.3c0.2-0.3,0.3-0.6,0.4-0.8c0.3-0.4,0.5-0.3,0.5-0.3
			c0.5,0,0.7,0.3,1.1,1.2c0.3,0.9,1.5,4.5,1.6,5.6C643.3,90.3,643.3,92,643.3,94.3z M644.5,76.9c0.6,0.3,1.2,2.1,1.4,2.6
			c0.2,0.6,9.6,27.2,9.8,27.9c0.2,0.7-0.1,1.8-1.1,2.2c-0.9,0.3-1.9,0.4-2.6-0.9c-0.2-0.5-3.5-10.3-6.5-18.8c-2-5.7-3.8-10.6-4-11.1
			c-0.3-0.8,0.4-1.7,1-1.9C643.2,76.6,643.9,76.6,644.5,76.9z"/>
		<path fill="#010103" d="M659.6,255.8c-0.4-0.2-1.5,0.2-3.1,0.6c-0.9,0.3-2.1,0.5-3.1,0.8c-2.2,0.6-4.2,1.4-6,1.3
			c-2.8-0.1-2.3-1.7-4.5-2.6c-1.9-0.7-3.9-0.1-5.6,0.3l-0.5,0.8c0.9,3.5,1.8,7.9,2.2,12c0.3,3,0.3,6,0.3,8.6c0,0.5-0.2,1.6-0.3,3.2
			c-0.1,1.5-0.1,3.5-0.2,4.7c-0.1,1.3-0.4,2.6-0.6,3.9c-0.2,1.3-0.5,2.3-0.7,3.6c-0.5,2.2-1,4.6-1.8,6.6c-2.6,6.3-6.2,11.6-8.9,18.1
			c-1,2.5-2.3,5.1-3.5,7.5c-0.7,1.4-1.7,3-3,4.5c-1.2,1.3-2.7,2.3-3.7,3.2c-0.8,0.8-1.4,1.8-1.9,2.6c-1.2,2-2.2,3.7-3.4,5.1
			c-0.3,0.3-0.7,0.7-1,0.9l16.2,0.3c-0.3-0.1-0.5-0.3-0.8-0.6c-0.5-1.4-1.2-3.7-1.4-6c0.1-1,0.4-2,0.7-2.5c0.5-0.8,1.3-1.8,2.4-2.6
			c0.9-0.6,2.1-1.2,2.9-1.6c0.9-0.5,1.3-0.3,2-1c0.8-0.8,0.4-1.4,0.6-2.1c1.1-3.6,2.8-7.4,4.3-11c1.9-4.6,4.4-9.7,7.2-13.7
			c1.5-2.2,3.7-4,4.2-5.7c0.4-1.4,0.1-3.2,0-5c-0.1-1.5,0.1-3,0.2-4.3c0.2-3.9,1.2-7.5,2.5-11.2c0.5-1.4,0.9-2.9,1.6-4.4
			c0.7-1.6,2.4-5,4-7.9C658.4,258.8,660.1,256,659.6,255.8z"/>
		<path fill="#010103" d="M653.9,321.9c0.1-1.9,0.1-3.9,0.2-5.8c0.1-1.6,0.3-3.1,0.4-4.7c0.2-4.6,0.5-9.3,0.6-14l-2.1,1.3
			c-0.8,0.9-4.2,4.4-5,5.7c-1.5,2.5-2.9,5.1-4.4,7.6c-1.3,2.2-1.7,3.7-2.3,5.2c-0.9,1.9-1.2,3.4-2,5.4c-0.5,1.3-1.4,4-1.5,5.2
			c-0.1,1.7-0.4,5.9-0.2,8.2c0.1,0.7,0.2,0.8,0.9,1.2c3.6,0.1,12.8,0.1,12.8,0.1c2.2,0,2.2-0.7,2.1-2.7c-0.1-2.4,0.1-4.5,0.3-6.9
			C653.6,325.7,653.8,323.8,653.9,321.9z"/>
		<path fill="#010103" d="M672.9,306.4c0.4-0.9,0.8-1.7,1.2-2.4c0.8-1.3,2-3.2,3.5-5.1c1.4-1.9,3.1-3.9,4.2-5.3
			c0.6-0.7,1.3-1.3,1-2.1c-0.2-0.6-1.2-1.3-2.1-2.2c-1.6-1.5-3.5-3.3-4.2-4.1c-1.7-1.8-3-4.2-4.4-6.2c-2.7-4.1-5.6-8.1-7.3-13
			c-0.1-0.3-0.2-0.4-0.3-0.4c-0.1,0-0.1,0-0.3,0.7c-0.3,1.4-0.5,3.6,0.6,6.8c0.2,0.5,0.1,1.1,0.3,1.7c0.4,1.2,1,2.6,1.6,4.1
			c1.6,3.9,3.6,8.3,4.7,11c0.8,2.1,0.9,4.2-0.5,6.7c-1.8,3.4-3.6,7.5-5.6,11.2c-1.5,2.7-3,5-3.3,7.3c-0.2,2.3,0.8,4.6,2.4,7.5
			c0.3,0.5,0.4,1.2,0.8,1.8c0.6,0.9,1.2,2.3,1.6,3.2c0.2,0.6,0.7,1.3,1.1,1.9c1.6,2.3,3.1,4.3,4.1,5.9c0.4,0.7,1,1.3,1.2,1.7
			c0.1,0.1,0,0.1,0.1,0.1c1.2,0,2.1-1.7,3.3-3.4c0.7-1,2.3-2.9,3.4-4.3c0.4-0.4,0.6-0.9,0.4-1.3c-0.6-1.4-5.2-1.1-6.5-1.9
			c-0.5-0.3-1-0.5-1.4-0.8c-1.9-1.4-2.6-3.1-2.2-4.5c0.3-1,2.2-1.4,2.4-2.4c0.4-1.8-2.1-2.4-1.9-5.7
			C670.8,310.8,671.9,308.4,672.9,306.4z"/>
		<path fill="#010103" d="M588.2,174.9c0.7,0.4,1.3,0.7,2.2,1c1.1,0.4,2.5,0.8,3.5,1.2c0.7,0.3,1.5,0.4,2.2,0.5
			c1.5,0.3,2.9,0.4,4.6,0.5c2.1,0.1,7.3,0.8,7.5-0.1c0.2-0.9-1.6-2.3-2-3.3c-0.1-0.3-0.8-0.9-1.2-1c-0.7-0.2-1.8-0.1-2.5-0.2
			c-0.7-0.1-1.4-0.2-2-0.2c-1.1-0.1-2.1-0.1-3.2-0.2c-0.6-0.1-1.2-0.3-1.8-0.4c-1.3-0.3-2.7-0.5-4.1-0.9c-0.4-0.1-0.9-0.2-1.3-0.3
			c-0.3-0.1-0.8-0.3-1.4-0.5c-1-0.4-2.1-0.9-2.5-0.2C585.6,171.7,587,174.4,588.2,174.9z"/>
		<path fill="#010103" d="M565.7,137.4c-0.3-0.1-0.6-0.2-0.8-0.4c-0.9-0.7-1.6-2.1-2.4-3c-1.2-1.3-2.5-2.1-3.4-2.5
			c-1.3-0.6-2.7-1.3-4.1-1.8c-0.6-0.2-1.3-0.4-1.9-0.5c-0.7-0.1-1.3-0.1-2.1-0.2c-0.7-0.1-1.3-0.2-2-0.3c-1.1,0-2.1,0.2-3.2,0.4
			c-0.3,0-0.5,0-0.8,0.1c-1.3,0.2-2.6,0.5-3.9,1c-1,0.4-2,0.8-2.5,0.9c-0.4,0-1.2-0.1-2.4-0.3c-0.5-0.1-1-0.3-1.5-0.4
			c-1.1-0.1-2.1-0.1-3.1,0c-1.1,0-2.2,0.1-3,0.2c-2.5,0.4-4,1.2-6.8,2.7c-0.4,0.2-3.4,2.8-3.8,2.9c-1.3,0.3-2.8,0.1-4.6,0.5
			c-0.8,0.2-1.7,0.6-2.6,0.8c-1.4,0.2-2.8,0.9-4.2,1.7c-1,0.5-1.9,1.3-2.9,2.2c-0.4,0.3-0.9,0.6-1.3,1c-1,0.8-3.5,4-3.9,4.3
			c-0.9,0.5-3.2,0.8-5.2,1.2c-0.9,0.2-1.9,0.5-2.8,0.8c-0.4,0.1-0.9,0.1-1.5,0.4c-0.4,0.3-1.4,0.6-1.4,1c0,0.3,0.4,0.5,0.7,0.7
			c0.5,0.4,1,0.7,1.4,1c0.8,0.6,1.3,1.4,2.1,1.5c0.4,0.1,2.2-0.2,3.3-0.4c0.9-0.2,1.8-0.2,2.8-0.9c0.5-0.3,0.6-1.1,1.2-1.5
			c0.8-0.7,1.3-1.5,1.9-2.1c0.8-0.8,1.7-1.4,2.6-1.8c0.8-0.4,2-0.9,3.1-1.3c0.7-0.2,1.3-0.2,1.7-0.4c0.6-0.4,1.3-1.4,2.1-2.2
			c1.1-1,2.2-1.8,2.9-2.2c3-2,5.9-3.3,9.9-3.5c1.3-0.1,2.9,0.1,4.1,0.3c0.7,0.1,1.2,0.2,1.6,0c0.8-0.3,1.8-1.3,2.9-1.8
			c2.2-1.1,4.7-1.6,7.2-1.7c1.3-0.1,2.7,0.2,3.9,0.3c0.9,0.1,1.6,0.1,2.5,0.4c1.6,0.4,3.3,1,4.8,1.7c0.8,0.4,1.5,0.9,2.1,1.4
			c0.4,0.3,0.7,0.6,1.3,0.7c0.5,0.1,1.1,0,1.7-0.1c1.8-0.1,4.3-0.1,6.6,1.1c3,1.6,5,4.5,5.2,5.1c0.2,0.7,2,1.4,3.6,2.3
			c1.1,0.6,1.9,1.2,2.7,1.9c2.1,1.7,2.1,2.6,3.2,4.1c1.6,2.2,2.3,4.6,3.3,7.5c0.8,2.2,0.2,6.9,0.2,10c0,4.2,5.2,6,4.4,5.3
			c-0.8-0.7-2.6-4.4-0.9-6c1.8-1.6,0.4-7.8,0.4-7.8c-0.7-2.8-1.5-5.9-2.1-7.9c-0.1-0.4-0.5-1.2-0.6-1.7c-0.5-1.6-1.5-3.5-2.7-5.3
			c-1.2-1.7-2.6-3.2-3.5-4.1c-0.7-0.7-4.6-3.5-7.2-4.5C567.6,137.8,566.5,137.7,565.7,137.4z"/>
		<path fill="#010103" d="M607,180.2c-1.9,0-3.9,0-5.6-0.2c-1.7-0.2-4.6-0.7-6.9-1.2c-1.8-0.4-3-1-3.7-0.4c-1,0.7,2.6,4.4,4,5.1
			c3.3,1.6,6.9,1.1,10.2,1.4c0.9,0.1,4.6,0.5,6.5,0.1c1.6-0.3,0.9-4-1.4-4.6C609.1,180.2,608,180.2,607,180.2z"/>
		<path fill="#010103" d="M568.9,275c0.5,1.6,1,3.3,1.6,5.2c0.7,1.9,1.2,4,1.8,6.1c1,2.8,2.1,5.6,2.7,8.4c0.9,4.6,1.3,4.2,2.1,8.8
			c0-0.3,1.1,3.8,1.3,4.8c0.3,1.7,1,4.5,1.3,7c0.2,1.5,0.1,2.9,0,4c-0.1,1-0.5,1.9-0.7,2.8c-0.9,3.4-1.9,5.5-2.6,6.8
			c-0.7,1.3-1.7,2.4-2.4,3.7c-0.5,0.9-1.1,1.6-1.6,2.6c-0.4,0.7-1.1,2.2-1.9,3.5c-0.6,0.9-0.9,1.6-1.3,1.8l16.4,0.3
			c-0.1-0.2-0.2-0.4-0.3-0.7c-0.4-0.8-0.9-2.5-1.1-3.1c-0.3-1.5-0.9-2.6-1.1-3.7c-0.4-2-0.2-3.6,0.4-4.9c0.3-0.6,0.7-1.1,1.1-1.7
			c0.4-0.7,0.9-1.5,1.5-2.2c0.6-0.7,1.3-1.4,1.6-2.3c0.3-1,0.2-2.8,0.1-4.2c0-0.4-0.1-0.7-0.2-1.1c-0.3-2.3-0.7-4.8-1.3-7.9
			c-0.4-1.9-0.5-5.8-0.7-7.6c-0.4-3.8-0.6-7.8-0.9-11.9c0-0.4,0-2-0.1-2.5c-0.5-6.3-0.1-10.4,0.8-17.5c0.2-1.8,1.1-4.3,1.5-5.8
			c0.3-1.1,0.5-2.3,0.9-3.4c0.2-0.5,0.5-0.9,0.7-1.4c0.3-0.8,0.4-1.7,0.7-2.6c1.2-3.1,2.7-6.2,4.2-9c0.5-1,1.3-4.8,3-6.1
			c1.1-0.9,2.9-0.4,3.9,1.7c0.3,0.6-0.6,2.4-1.6,4.2c-0.5,0.9-1.1,1.8-1.4,2.6c-0.9,2.1-2.3,3.5-1.2,4.1c2.3,0.2,4.4,0.1,6.5,0
			c2.3-0.1,4.5,0,6.6,0c4.2,0,8.2,0,12.5-0.4c0.8-0.1,1.6,0,2.4-0.1c2.5-0.4,4.5-0.6,6.2-0.8c3.6-0.5,5.8-0.9,7.7-1.1
			c1.7-0.2,3.1-0.4,5-0.3c0.7,0,1.6,0.5,2.3,1.1c1.1,0.9,1.7,1.4,2.4,1.3c1.2-0.3,2.5-0.5,3.6-0.8c1.6-0.3,3.1-0.6,4.4-1
			c1.2-0.4,2.5-0.5,3.2-1c0.4-0.3-0.2-1.2-1-1.9c-0.6-0.5-1.3-0.8-1.7-0.9c-2.8-0.5-4,0.1-5.6-2.4c-0.3-0.5-0.7-2,1.2-2.4
			c1.8-0.5,3.4-0.3,6,0.6c3.2,1,5.1,3.5,6.9,6.3c1,1.6,1.5,3.2,2,4.9c0.5,1.8,1.1,3.6,1.6,5.4c0.3,1.3,0.5,2.5,1.1,3.8
			c1,2.2,1.6,4.3,2.6,6.2c2.1,3.7,5.5,8.9,10.7,12.9c2.9,2.2,5.2,4.6,7.6,7.3c1.3,1.4,2.3,3,3.2,4.5c0.7,1.2,1.2,2.5,1.5,3.9
			c0.5,2.4,0.8,4.8,1.1,7.2c0.2,1.9,0.6,3.9,0.8,5.8c0.1,1,0.6,2.5,0.6,3.6c-0.1,4.7,1,8.1,0.9,11.8c0,1-1.3,3.8-2.5,5.9
			c-0.3,0.4-0.5,1-0.9,1.3c-1,1-1.9,1.4-3.2,2.3c-1,0.7-1.7,1.8-2.2,2.6c-0.5,0.7-1,1.3-1.5,2c-0.3,0.8-0.9,1.4-1.4,1.7l17.5,0.3
			c-1.8-0.4-1.5-1.6-1.6-3c0-0.9-0.1-1.9-0.1-2.8c0-0.4,0-1.2,0-1.6c0-0.7,0.2-2.3,0.4-3.1c0.4-1.1,0.7-2.6,1.4-3.7
			c1.2-2.1,2.7-3.9,2.9-5.3c0.3-1.8-0.9-5-1.6-7.7c-0.3-1.3-0.8-6.4-0.9-7.7c-0.1-2.1-0.6-4.6-0.6-6.7c0-2.1,0.6-3.9,0.9-6
			c0-0.3,0.3-1,0.4-1.3c0.2-0.8,0.1-1.9-0.1-2.5c-0.2-1.2-1-2.1-1.7-3.2c-0.7-1.1-1.3-2.3-1.9-3.3c-1.3-1.9-1.9-4.1-3.6-7.7
			c-0.7-1.5-1.4-3.1-2.1-4.8c-0.9-2.2-1.5-4.7-1.5-7.2c0-2.8,0.7-6,1.6-8.3c1.1-2.9,3.9-7.3,5.8-11.7c1.8-4.2,2.9-8.6,3.3-9.8
			c1-3.1,1.3-8.4,1-12.1c-0.2-2.2-0.5-4-0.9-5.7c-0.2-0.9-0.1-1.7-0.5-2.6c-0.2-0.5-0.2-1-0.4-1.6c-0.1-0.4-0.6-1-0.8-1.5
			c-0.7-1.7-1.5-3.3-0.9-3.8c1.4-1.3,9.2-2.9,12.6,2c3.6,5.2,2,11.9,0.6,15.9c-1.8,5.1-3.9,10.7-4.7,16.3c-0.4,2.5-0.4,4.5,1,7.1
			c1,2,2.3,4.2,2.4,6.7c0.1,4.3-4.3,5.9-4.2,10.5c0,2.6,2.4,6.8,6,6.7c0.3-0.7-0.3-1.3-0.2-1.9c0.2-1.8,0-3.4,0.8-5.3
			c2-4.3,4-4.5,5-5.1c2.8-2,7.7-4.1,7.9-7.8c0.1-1.4,0-2.7-0.4-4.3c-0.6-2.5-1.4-4.1-1.9-5.2c-0.5-1.1-1.3-2.1-1.4-3.7
			c-0.1-0.8,0.2-1.6,0.4-2.4c0.3-1.2,0.6-2.6,1.2-3.8c0.8-1.6,2.1-2.8,4.5-8.9c1-2.6,1.3-4.7,1.5-6.3c0.1-1.4,0-2.9,0.1-4.2
			c0.1-3.2-1.3-6.6-2.5-9c-0.4-0.9-1.1-1.8-2.3-2.9c-1.4-1.3-3.6-2.8-4.7-3.4c-0.8-0.5-1.5-0.6-2.3-0.8c-3.6-1.3-7-1.2-11.7,0.4
			c-1.6,0.5-3.2,1.2-4.7,2c-2.4,1.4-4.5,2.9-6.1,2.5c-1.5-0.4-2.9-2.8-4.1-3.8c-1.4-1.2-3.3-2.5-4.9-3c-3.5-1.1-5-1.8-8.6-2.3
			c-3.2-0.4-6.1-0.2-9.1,0.1c-2.7,0.2-5.4,0.5-8.2,0.8c-2.7,0.3-5.4,0.9-8.1,1.2c-2.1,0.3-4.1,0.5-6.3,0.7c-3.8,0.4-8.3,1-12.2,1.6
			c-1.1,0.1-1.8,0.1-2.8,0.3c-2.2,0.3-3.8,0.2-6,0.1c-1,0-2.1-0.2-3.4-0.1l0-0.1c-1.4-0.1-5.4-0.6-5.9-0.7c-0.5-0.1-3-0.3-3.7-0.6
			l-6.2-1.3c2-1.1,4-2.4,5.4-3.9c3.9-4.1,6.2-11,2.8-16.2c-0.5-0.8-1.2-1.3-2-2.1c-1.1-1.1-3.3-2.6-4.9-2.8c-0.7-0.1-1.4-0.2-2-0.1
			c-0.8,0.2-1.3,0.7-1.4,1.3c-0.1,0.4-0.1,0.9,0.3,1.4c0.8,1.2,2.7,1.9,4.2,3c1,0.7,1.8,1.8,2.1,3c0,0.1,0.1,0.4,0.1,0.5
			c0.3,1.6,0,3.1-0.5,4.5c-0.8,2.3-2.4,4.4-4.4,5.8c-2.2,1.5-3.3,2.1-5.5,2.8c-1.1,0.3-2.1,0.7-3,1c-11.1,0.2-18.2-11.9-23.9-19.9
			c-1-1.3-2.9-3.7-4.7-6.1c-1.3-1.7-2.5-3.4-3.7-4.7c-2-2-3.9-3.8-5.3-4.8c-2-1.3-3.7-2.7-6.1-3.8c-2.8-1.3-5.9-2.6-8.8-3.7
			c-2.1-0.8-4.8-1.4-7-1.8c-1-0.2-2.3-0.6-3.5-0.9c-1.2-0.3-2.2-0.3-2.9-0.6c-0.7-0.3-1-0.5-1.3-0.8c-0.6-0.8-0.2-1.8,1.3-2
			c2.6-0.4,7.5,0,8.9,0.3c1,0.2,2.2,0.2,3.2,0.4c1.5,0.3,2.8,0.7,4.2,1.1c3.8,1.1,7.4,3,10.8,4.8c0.7,0.4,1.6,1.1,2.2,1.6
			c2,1.3,3.5,2.5,5.4,4.3c1.6,1.6,3.1,3.2,4.6,5c0.3,0.3,1.2,1.6,1.6,1.4c0.4-0.1-0.4-1.6-0.4-2.1c-1-2.7-3.4-7.7-6-10.1
			c-2.6-2.4-5-2-5.8-2.5c-0.4-0.3-0.7-1-0.8-1.9c-0.1-1-1.1-2.5-2.9-3.7c-2.3-1.5-5-0.2-7.4-0.7c-0.9-0.2-2.3-1.3-4-2.1
			c-1.1-0.6-2.1-0.9-3.3-1.3c-2.1-0.6-5.3-0.7-7.3-0.6c-3.3,0.2-5.3,2.8-7.3,3.9c-0.7,0.4-1.6-0.3-2.7-0.6c-1.3-0.3-2.9-0.3-4-0.2
			c-2.8,0.2-5.7,1.7-8,3.3c-2.6,1.9-2.8,3.5-4.3,4.2c-0.3,0.1-1.4,0.2-1.7,0.3c-2.4,0.7-3.2,1.1-5.3,2.7c-1.2,0.9-2.1,2.8-2.8,3.7
			c-0.3,0.4-0.7,0.7-0.9,0.7c-0.5,0.1-2.8,0.1-4.8,0.3c-1.1,0.1-1.9,0.3-2.7,0.5c-1.3,0.4-2.4,0.9-2.4,1.3c0,1,5.2,2.2,3.7,1.8
			c-0.3-0.1,1.6,0.3,2.9,0.9c0.5,0.2,1.1,0.6,1.2,0.8c0.4,0.5,0.5,1.1,0.7,1.8c0.2,0.9,0.4,1.9,0.3,3.2c-0.2,3.1-1.4,6.9-2.1,10.4
			c-0.2,1.3-0.3,2.6-0.3,3.7c-0.1,0.9-0.1,2.5-0.1,3.5c0.2,4.7,2.5,7.9,3.6,13.7c0,0.2,0.3,3.6,0.5,4.9c0.4,2.2,0.5,4.6,0.6,6.9
			c0,1.1-0.5,2.4-0.5,3.6c0,4.3,1.8,7.1,4.9,7.8c1,0.2,2.2,0.7,3.6-0.1c2.2-1.3,2.2-3.3,2.3-5.2c0-0.7-0.1-1.5,0.2-2.2
			c1.3-3.8,3.8-3.2,4.4-2.9c1.5,0.6,1.5,2,1.6,2.8c0.1,1.3-0.6,3.4-0.8,4.8c-0.3,2.4,0.5,3.3,2.2,1.9c0.7-0.6,0.5-1.9,1.2-2.9
			c0,0,1.2-6.3,2.1-12.2c0.1,0,0.1,0,0.2-0.1c0.9-0.3,1.8-0.2,2.6-0.2c3.9,0,8-0.1,12-0.3c1-0.1,2-0.1,3-0.1l1.1,2.6
			c1.1,1.7,2.6,6.3,3.4,8.2c1.8,4.4,2.6,9.3,3.7,14.1c0.2,1.1,0.2,2.2,0.4,3.3c0.5,3.9,0.7,7.8,1.5,11.5c0.5,2.5,1.1,3.8,2,5.3
			c1.5,2.8,4.5,5.3,9.5,10.5c1.7,1.8,2.4,4.2,3.6,6.6c0.4,0.8,0.4,1.7,0.7,2.5C567.2,270.9,568.1,272.7,568.9,275z M500,185.9
			C500,185.9,500,185.9,500,185.9l0-0.2C500,185.8,500,185.8,500,185.9c0.5-5.6,7.3-3.3,6.8,0.8C506.2,190.8,499.8,190.9,500,185.9z
			 M506.6,218.3c-3.8-0.8-1.9-5.7,1.2-3.8C510,215.9,509.8,219,506.6,218.3z M535.7,200.7c-3.8,0.2-8.1,0.3-11.8,0.1
			c0.2-1.8,0.4-3.2,0.4-4.1c0-0.4,1-1.4,1.5-1.9c0.8-0.9,1.7-2,2.1-2.8c1.4-2.6,1.8-6,1.7-9.5c-0.1-3.9-0.6-8-1.5-11.2
			c-0.3-1-1.5-2.6-1.5-2.6c-2.4-2.4-1.3-3.6,1-4c0.9-0.2,2,0.5,3,1.7c1.9,2.5,3.4,6.1,3.7,9.2c0.4,3.9,0.2,3.6,0.5,7.3
			c0.2,2.7-1,6.2-0.1,7.9c0.6,1.1,2.4,3.9,2.9,5.9l1.6,3.9C537.9,200.6,536.7,200.6,535.7,200.7z"/>
		<path fill="#010103" d="M549.5,291c0.6,3.1,1.3,6.9,1.8,10.7c0.4,3.1,0.6,6.1,1.6,8.5c0.5,1.3,1.7,2.3,2.5,3.3
			c1.8,2.2,3.8,4,5.6,6c0.2,0.2,0.4,0.3,0.6,0.4c0.2,0,0.4-0.1,0.6-0.5c0.7-1.1,1.8-3.3,2.7-5.8c0.2-0.5,0.3-0.7,0.5-1.2
			c0.8-1.7,1.5-3.2,1.2-3.8c-0.4-0.7-1.5-0.7-2.9-0.7c-0.9,0-2-0.4-2.9-0.4c-1-0.1-2.1-0.7-2.7-1.1c-1.9-1.4-1.7-3.1-1-4.6
			c0.2-0.5,1.3-1.8,1.1-3c-0.3-1.8-1.2-3.5-1.8-5.3c-0.4-1.2-0.4-2.5-0.6-3.8c-0.2-1.3-0.6-2.6-0.5-3.9c0.1-1.8,0.2-3.1,1.1-4.1
			c1.2-1.5,3.2-1.8,5.2-2.5c0.9-0.3,2.2-0.7,2.5-1.4l0.1-0.7c-0.1-0.9-0.4-1.4-0.7-2.1c-0.2-0.6-0.4-1.3-0.9-1.9
			c-0.8-0.1-1.4,0.4-2.2,0.7c-1.5,0.5-3.2,1.2-4.6,1.7c-1.3,0.4-3.4,1.3-5,2.1c-1.4,0.7-2.4,1.3-3.3,1.8c-1.2,0.7-0.8,2.3-0.1,4.6
			C548.2,286.1,549.1,288.7,549.5,291z"/>
		<path fill="#010103" d="M541.4,275.9c1.5-0.7,3.1-1.4,4.7-2.1c3.6-1.5,7.5-2.5,11.1-3.9c1.1-0.5,2-0.7,2.5-1.1
			c0.5-0.4,1-0.5,0.9-1.2c0-0.4-0.4-0.9-0.7-1.6c-0.2-0.5-0.3-1-0.6-1.5c-0.7-1.1-1.7-1.7-2.3-2.2c-1-1-2-2-3-2.9
			c-1.3-1.2-2.6-3.2-3.6-3.5c-0.4-0.1-2.9,1.3-5.7,3.4c-1,0.8-2.1,1.3-3.3,2.1c-0.9,0.6-1.7,1.4-2.6,2c-1.4,1.1-2.9,2-4.3,3.1
			c-1.2,0.9-2.6,1.7-3.8,2.6c-0.5,0.4-1,0.8-1.3,1.1c-0.8,0.9-1.6,1.6-2,2.5c-0.8,1.9-0.6,5.1,0.4,8.6c0.6,2.2,0.7,5.3,1.2,7.8
			c0.5,2.8,0.9,5.5,0.8,6.5c-0.1,1.5-0.2,3.8-0.3,5.8c-0.1,0.9,0,1.8-0.1,2.4c-0.8,3.1-1.2,6.4-0.6,9c0.7,3.3,3.2,7.5,6,10.8
			c0.9,1.3,1.5,2.6,2.3,3.1c1.3-1.3,2.3-3.2,3.8-5.3c0.7-1,1.2-1.8,1.7-2.7c0.3-0.5,0.6-1.1,0.8-1.6c0.1-0.4-0.5-1.1-1.4-1.6
			c-1-0.5-2.5-0.6-3.8-1.4c-2.4-1.4-4.1-3.7-3-5.4c1.3-2,2.9-2.3,3.4-3.2c0.4-0.7,0-1.8-0.7-3.5c-0.8-2-1.1-5.6-0.9-9.1
			c0.2-4.1-1.3-10.7,0.5-14.6C538.1,277.1,539.9,276.6,541.4,275.9z"/>
		<path fill="#010103" d="M497,212.6c0-0.6,0.2-2.7,0.1-3.3c-0.2-3.8-0.3-7.1-1-10.2c-0.4-1.8-1.2-3.6-1.8-5.3
			c-0.3-0.9-0.3-2.4-1.3-3.2c-0.6-0.5-1.4-0.7-1.9-0.9c-1.3-0.5-1.9-1.3-2.4-2.7c-0.5-1.4,0-2.9,1.2-3.9c0.8-0.7,2-0.9,2.4-1.6
			c0.4-0.6,0.2-1.5,0.5-2.6c1.2-4.6,3-11.9,1.8-13.3c-0.3-0.4-1.1-0.6-1.9-0.9c-0.6-0.2-1.4-0.4-2.1-0.6c-1.8-0.6-4.6-2.3-5.6-3.1
			c-0.8-0.6-4.7,1.6-3.9,2.2c0.4,0.2,2.2,0.5,4,1.3c2.3,0.9,4.5,2.5,5,3.9c0.5,1.7-0.6,8.3-1.2,10.1c-0.6,1.9-1.1,3.8-1.3,5.6
			c-0.1,0.9-0.3,1.6-0.1,2.6c0.1,0.3-0.1,0.5,0,0.8c0.6,1.9,2,3.6,2.9,5.5c0.4,0.7,0.1,2.1,0.3,2.8c0.7,3.3,1.2,6.2,1.2,9.3
			c0,1.3-0.3,2.7-0.5,4.2c-0.1,1.1-0.1,2.3-0.4,3.4c-0.6,2.5-0.4,3.7,0.2,5.1c1.5,3.3,5.7,3.9,5.9,2.3c0.2-2.8-2.3-1.7-3.1-2.9
			c-0.7-1-1.4-1.8-0.4-3.5C494,212.7,495.9,212.7,497,212.6z"/>
		<path fill="#010103" d="M577.7,362.8c3.1,2,6.7,3.7,10.6,3.7c3.1,0,6.5-1.4,9.6-3.7c2.6-1.9,4.3-3.8,6.9-5.9
			c1.2-0.9,1.2-0.9,2.8-1.1c1.7-0.2,3,0,4.8,0c0.1,0,0.9,0,1.1-0.1c0.2-0.1-0.1-0.7-0.3-0.9c-2.5-3.3-5.3-3.2-7.7-3.1
			c-8.4,0.2-11.1,7-17,7.7c-3.2,0.4-8.9-0.9-11.8-2c-2.6-1-7.4-3.3-7.7-3.5c-0.3-0.2-0.6,0.1-0.2,0.6
			C569.2,354.9,575,361,577.7,362.8z"/>
		<path fill="#010103" d="M615.4,364.4c1.3-0.1,3.5-3.3,4-4c0.3-0.4,0.1-0.6-0.3-0.7c-0.5-0.1-6.2-0.5-8.7,0.1
			c-1.6,0.4-6.5,3.4-5.9,4.1C605.2,364.8,613.2,364.5,615.4,364.4z"/>
		<path fill="#010103" d="M616.7,374c7.4,0.8,13.1-5.7,17.7-10.8c2.5-2.7,4.3-4.8,9-6.7c1.8-0.7,3.7-0.3,5.7-0.3
			c1.5,0,1.2-0.5-0.8-1.9c-2.5-1.8-4.6-2-7.3-2c-2.3,0-4.5,0.6-6.2,1.1c-3,0.9-5.8,2.9-8.2,5.2c-2.5,2.4-4.3,5.6-6.8,7.9
			c-1.5,1.3-1.8,2-5.2,1.9c-1.6-0.1-5.1-0.1-5.4,0.2c-0.3,0.3,0.2,1,0.2,1C611.4,371.9,613.3,373.6,616.7,374z"/>
		<path fill="#010103" d="M647.8,364.9c0.5,0,1.8,0.1,2.5-0.4c0.7-0.5,4-3,4-3.7c0-0.3-2-0.3-4.3-0.4c-1.5,0-3.4-0.2-4.7,0.1
			c-3.4,0.7-5.1,3.4-5.1,3.6c-0.2,0.3-0.1,0.4,0.1,0.6C640.5,364.7,646,364.8,647.8,364.9z"/>
		<path fill="#010103" d="M685.6,361c-0.3-0.2-1.8-0.1-3.4-0.2c-1.3,0-2.6-0.1-3.5,0.1c-1.7,0.4-4.4,3.7-4.5,4.1
			c-0.1,0.4-0.3,0.6,0.4,0.8c0.7,0.2,5.3,0.3,7.9,0.3c1.6,0,3.1,0.3,3.4-0.4c0.3-0.8,0.3-1.8,0.3-2.7
			C686.2,362.1,686.1,361.2,685.6,361z"/>
		<path fill="#010103" d="M711,357.6c2.3-0.7,7.4-0.8,6.7-1.7c-0.8-1.1-3.1-1.9-6-2.2c-1.7-0.2-2.9-0.2-4.7-0.1
			c-3.5,0.3-7.3,1.4-10.9,1.4c-3.6,0-6.9-1.2-10.5-2.1c-4.3-1-8.6-1.5-13-0.1c-6,1.9-9.7,5.3-14,9.7c-2,2-3.9,4.6-6.4,5.6
			c-2.7,1.1-8.1,0.3-9.4,0.4c-0.3,0-1.1,0.1-1.1,0.1c-1.2,1,4,4.9,6.9,5.3c2.2,0.3,7,0.4,10-1.1c6.2-3.2,9.5-8.8,14.7-13.6
			c2.5-2.3,4.8-3.7,9.4-3.3c4.3,0.4,7.9,2.2,11.6,3.6c3,1.2,5.5,2.3,9.1,2.9c0.6,0.1,1.1,0.3,1.7,0.4c1.6,0.2,7.4,0.9,10.8-0.5
			c0.5-0.2,1.6-0.9,1.6-1.3c0-1-7.4-0.1-7.1-2.4C710.4,358.3,710.5,357.8,711,357.6z"/>
		<path fill="#010103" d="M721.9,357.7c-1.5,0.2-2.7,0.3-3.1,0.6c-0.4,0.4,0,0.7,0.2,0.7c0.3,0,1.7,0.3,3.1,0.6
			c2.3,0.5,5,1.1,4.7-1.1C726.7,356.9,724.1,357.4,721.9,357.7z"/>
		<path fill="#010103" d="M776.7,286.4c0.4,2.2,0.9,3.1,2.5,3.5c0.5,0.1,1.3,0,2.2-0.1c1-0.1,2.1-0.2,2.8-0.5
			c1.1-0.5-1.7-5.7-4.3-9.6c-1.8-2.8-3.5-4.8-4.1-4.5c-0.4,0.2-0.2,1.3-0.2,2.6c0.1,1.7,0.4,3.8,0.7,5.7
			C776.5,284.6,776.6,285.6,776.7,286.4z"/>
		<path fill="#010103" d="M755.1,283.5c0.1,0.8,0.1,2.8,0.3,4.4c0.1,1.3,0.6,1.6,1.7,1.6c1.2,0,1.4-0.3,1.6-1.6
			c0.3-1.8,0.3-4.5,0.5-6.4c0.2-1.6,0.2-3.8,0.5-6c0.2-1.4,0.5-2.8,0.6-3.9c0-1.2,0.1-1.9-0.2-2.1c-0.8-0.5-6-0.5-6.1,0.6
			c-0.1,0.7,0.2,1.8,0.3,3.1c0.2,1.4,0.2,2.8,0.4,3.7C754.7,279.1,754.8,281.3,755.1,283.5z"/>
		<path fill="#010103" d="M748,297.6c-0.4-0.3-1.2-0.3-2-0.4c-0.8-0.1-1.6-0.1-2.1-0.2c-1.9-0.1-3.5-0.3-5.2-0.5
			c-0.6-0.1-1.2,0.1-1.8-0.1c-1.2-0.3-2.9-0.5-4.3-0.6c-1.1-0.1-2.1-0.4-2.8,0.2c-0.3,0.2-0.2,0.8-0.3,1c-0.3,0.6-0.4,1.6-0.4,2.8
			c0,2,0.3,3.9,0.7,4.1c0.5,0.2,2.8-0.5,4.3-0.9c1.6-0.4,3.2-0.5,4.7-0.7c0.8-0.1,2-0.2,3.2-0.3c0.8-0.1,1.6-0.3,2.4-0.3
			c2-0.2,3.9-0.2,4-0.5c0.3-0.5,0.3-1.7,0.2-2.5C748.4,298.3,748.4,297.9,748,297.6z"/>
		<path fill="#010103" d="M750.3,285c-0.2-1.7-0.2-3.4-0.3-5.2c-0.3-3.2-0.8-6.4-1.8-9.1l-0.1-0.2c-0.7-1.2-4.7,0.4-5.8,1.4
			c-0.4,0.4-0.3,1.7-0.3,3.1c0,0.8,0,1.6,0.1,2.3c0.4,4.6,0.3,13.4,1.1,13.9c0.4,0.3,1.9,0.3,3.5,0.2c1.4,0,2.9,0.1,3.5-0.5
			C750.9,290.3,750.5,286.8,750.3,285z"/>
		<path fill="#010103" d="M757.4,302.8c5.6-1,4.6-9.6-1.1-9.2C749.5,294,750.8,303.9,757.4,302.8z M757.4,295.8
			c2.7,1.2,1.7,5.8-1.8,4.8C752.1,299.6,753.8,294.2,757.4,295.8z"/>
		<path fill="#010103" d="M755.1,329.5c0.6,0,1.3,0.1,2.2,0.1c1.1,0,2.3,0,3.3-0.1c0.5,0,0.9,0,1.1-0.1c0.5-0.3,0.3-1.8-0.1-3.5
			c-0.3-1.2-0.4-2.5-0.5-3.4c-0.4-2.8-0.8-5.4-1-8.4c-0.1-1.4-0.3-3.7-0.6-5.3c-0.3-0.8-0.2-1.4-1.2-1.4c0,0-3.1-0.1-3.3,0.4
			c-0.4,1-0.3,8.6-0.4,10.2c-0.1,1.3-0.2,2.1-0.3,3.7c-0.3,3.5-0.9,6.9-0.9,7.2C753.4,329.5,754,329.5,755.1,329.5z"/>
		<path fill="#010103" d="M767.4,291.3c0.8-0.1,1.9,0,2.5-0.1c0.7-0.1,1-0.4,1-0.9c0-2-0.2-3.7-0.3-5c-0.1-3.5-0.2-7.4-0.3-10.1
			c0-1,0-3.1-0.4-4.3c-0.2-0.4-0.5-0.6-0.9-0.8c-0.5-0.3-1.2-0.5-2-0.6c-0.7-0.1-1,1-1.3,2.2c-0.2,0.8-0.4,1.6-0.5,2.2
			c-0.1,0.9-0.4,2-0.5,2.8c-0.4,1.8-0.6,3.5-0.8,5.5c-0.1,1.2-0.4,3-0.5,4c-0.1,1.8-0.4,4.5,0.3,5
			C764,291.4,765.7,291.5,767.4,291.3z"/>
		<path fill="#010103" d="M765.6,300.9c0.3,0.2,2.5,0.2,4.8,0.3c1.4,0.1,2.8,0.2,4,0.3c1.8,0.1,3.6,0.1,5.3,0.4
			c0.8,0.1,2.4,0.3,3.7,0.4c1,0.1,1.9,0.2,2.4,0c0.7-0.2,0.9-1.8,0.7-3.7c-0.2-2-0.1-3.3-1.3-3.4c-0.5,0-2.3,0.4-4.3,0.8
			c-2.7,0.4-5.7,0.7-7,0.9c-0.6,0.1-1.6,0.1-2.6,0.3c-1,0.1-1.9,0.3-2.9,0.4c-1.8,0.1-3.1,0.2-3.1,0.9
			C765.2,299.8,765.1,300.5,765.6,300.9z"/>
		<path fill="#010103" d="M791,188.6c-2.1-1.9-4-4.2-6.2-6c-2.9-2.4-4.8-4.4-7.1-6.3c-0.8-0.7-1.6-1.6-2.6-2.3
			c-1.1-0.9-2.4-1.6-3.8-2.5c0,0-1.6-1.9-4.5-1.1c-0.4,0.1-0.9,0.1-1.3,0.1c-2.2,0.3-5.2,0.4-8.6,0.6c-1.5,0.1-2.8,0-4.2-0.1
			c-2.1-0.1-4.2,0-6.5,0.6c-3.2,0.9-4.6,2.7-4.5,5.5c0,0.5-0.1,1.1,0,1.6c0.7,3.1,2.1,6.5,3.7,9.1c0.9,1.4,2.3,3.6,3.5,5
			c0.3,0.4,1,0.2,1.1,0.3c0.6,0.9,1.5,1.2,3.4,1c0.7-0.1,2.2-0.7,3.3-0.6c1.7,0.2,2.1,1.9,2.7,2.8c0.7,0.9,1.2,1.1,1.7,1.6
			c0.2,0.2,1.2,0.6,2.3,0.7c1,0.1,2.2,0.1,3,0c2.4-0.2,3.1-1.4,4.1-0.9c0.5,0.3,0.8,0.9,1.3,1.4c0.5,0.6,1.2,1.1,1.6,1.4
			c2.2,1.7,4.5,1.8,7.4,2c2.6,0.2,6.1-0.3,8.5-0.7c1.7-0.3,2.2-0.3,3.8-0.7c1.6-0.5,3.3-1.1,4.3-1.9c0.6-0.4,1-0.8,1.1-1.4
			c0.1-0.8-0.4-1.7-1.4-2.8C795.1,192.9,793.2,190.7,791,188.6z"/>
		<path fill="#010103" d="M760.7,208.9c5.8,2.1,10.9,1.9,12.1,1.8c0.3,0,1-0.1,2.1-0.2c0.4,0,0.9,0,1.4-0.1c2.4-0.4,5.6-0.9,5.8-1.1
			c0.3-0.3,0.7-1.1,0-1.3c-0.2-0.1-0.6-0.2-1.2-0.3c-0.6-0.1-1.5,0-2.3-0.1c-1.3-0.2-2.6-0.4-3.4-0.6c-1.7-0.5-2.8-0.9-4.2-1.6
			c-0.7-0.4-1.3-1-2.3-1.1c-0.8,0-2,0.1-3.4,0.2c-1.8,0.1-3.8-0.1-5-0.7c-0.7-0.4-1.8-1.1-2.7-1.9c-0.6-0.5-1.1-1-1.7-1.4
			c-0.5-0.3-1.2-0.1-1.7,0c-0.6,0.2-1.3,0.1-1.5,0.6C752.4,202,756.7,207.1,760.7,208.9z"/>
		<path fill="#010103" d="M771.6,133.4l-1.8,0.4c-0.6,0.1-1.4,0-1.8,0.4c-0.7,0.5-0.3,2.1-0.7,3.3c-0.8,2.7-1.4,6.3-2.4,8.9
			c-0.7,1.7-1.3,3.5-2.1,5.1c-0.8,1.7-1.4,2.7-1.9,3.7c-0.9,1.7-2,4.1-3.1,5.8c-0.2,0.4-0.5,0.9-0.8,1.4c-0.3,0.7-0.5,1.3,0.3,1.6
			c0.4,0.2,1.1,0.5,2.3,0.5c1.7,0,2.7-0.4,3.5-0.5c2.3-0.1,2.2-0.8,2.5-2c0.1-0.5,0.9-2,1.1-2.7c0.3-0.8,0.7-1.6,1.1-2.3
			c0.6-1,1-2.2,1.6-3.2c1.6-3,2.9-6.1,4.2-9.3c0.7-1.7,1.8-5,1.9-7.7c0.1-2.5-0.1-5.5-2.8-4C772.5,132.9,772.1,133,771.6,133.4z"/>
		<path fill="#010103" d="M754.5,79.3c-1.9-1.5-3.8,0.1-4.7-0.2c-0.6-0.2-1.3-1-1.8-1.7c-0.7-1-1.9-1.1-2.8-1.1
			c-1.7,0.1-2.2,1.1-3.8,1.2c-1.7,0.2-1.3-1.3-4.6-0.8c-2,0.3-3.7,2.7-5.2,3.2c-1,0.3-3.5-0.8-5.4,1.9c-1.3,1.8-1,3.9,0.5,4.4
			c0.8,0.3,3-0.6,5.1-0.7c1.1,0,2.1,0.6,3.1,1c0.6,0.3,1.7,0.8,2.2,1.1c1.1,0.7,3.2,2.1,4.4,3.4c1.1,1.3,1.6,2.3,2.2,2.3
			c1.2,0.1,1.6-2,2.7-3.7c1.4-2.1,3.3-3.9,5.3-2.6c3.6,2.3,6.8,7.2,9.4,10.3c1.8,2.1,3.6,4.6,5.1,7.1c0.7,1.1,2.1,3,3.1,4.5
			c1.1,1.6,2.3,2.6,3.9,1.2c1.1-1,0.5-2.4,1.2-3.3c0.4-0.5,1.6-0.4,1.9-0.8c1.7-1.9,0.6-2.4,0.3-4.5c-0.2-1.6,1.4-1.9,1.3-3.7
			c-0.1-2.6-2.3-2.9-2.7-3.8c-0.4-0.9,0.6-1.7,0.8-2.6c0.4-1.2,0.2-2.5-0.9-4c-1.1-1.4-2.7-1.4-3.7-1.2c-0.9,0.2-1.2,0.5-2,0.2
			c-0.3-0.1-0.7-0.7-1.3-1.1c-0.9-0.5-2.2-0.9-3.1-0.9c-0.8,0-1.6,0.1-2.2,0.5c-0.4,0.2-0.6,0.5-1,0.5c-0.1,0-0.2,0-0.3,0
			c-1,0.1-0.8-0.4-2.6-0.5c-1.2-0.1-2.7,0.8-3.3-0.9C755.5,82.4,756.8,81.1,754.5,79.3z"/>
		<path fill="#010103" d="M727.8,99.7c-0.2,0.4-0.7,0.7-1.1,1.2c-0.4,0.5-0.7,1.1-0.9,1.6c-0.5,0.9-0.7,1.5-0.1,1.9
			c0.6,0.4,1.7-0.3,2.6,0.8c0.2,0.3,0.5,1.1,0.8,1.6c0.2,0.3,0.3,0.3,0.3,0.6c0.2,0.6,0,1.1,0.2,1.5c0.2,0.6,0.5,0.8,0.6,0.9
			c0.7,0.6,3.6,0,5.3-0.3c1.2-0.3,2.4-0.7,2.9-1.6c0.4-0.6,0.3-1.3,0.8-1.9c0.9-1.1,1.3-2.7,0.6-3.7c-1.2-1.8-3.6-1.5-5-1.2
			c-0.6,0.1-1.2-0.1-1.9-0.2c-0.9-0.1-1.7,0.3-2.1-0.3c-0.8-1.4,0.5-2.9,1.1-3.1c1.2-0.4,2.1-0.1,3.1,0.2c1.6,0.4,2.4,0.5,2.3-1.4
			c-0.1-1.5-1.6-4.1-3.3-4.8c-1.8-0.8-3.1-1.2-3.6-0.6c-0.6,0.8-0.9,2.1-0.7,3.3c0.2,1.1,0,2.4-0.2,3C729,97.8,728.2,99,727.8,99.7z
			"/>
		<path fill="#010103" d="M647.7,22.8c-0.4,0.4-0.8,0.6-0.1,1.4c0.6,0.8,2,2,3,3.1c1,1.1,1.3,0.6,1.6,0.3
			c7.7-7.1,21.7-14.9,24.2-15.7c0.8-0.3,3.4-1.3,5.2-2c3.2-1.4,11.1-3,11.6-3.1c0.5-0.1,1.3-0.1,0.9-0.6c-0.3-0.4-6.6-2.8-9.7-2.4
			C683,4,678.5,3.6,672,6.2c-3.5,1.4-13.9,7.2-16.2,9.2C654.1,16.8,648.1,22.4,647.7,22.8z"/>
		<path fill="#010103" d="M615.9,1.8c1.9,0.2,4.7,1.1,7.4,2.4c4.5,2.1,8.8,4.9,9.9,5.6c1.7,1,9.2,8,10.1,9.2c1,1.2,1.7-0.1,1.7-0.1
			c0,0,0.7-0.6,1.4-1.3c1.2-1.1,2.7-2.5,2.2-2.9c-0.2-0.2-0.5-0.7-0.9-1.1c-0.7-0.8-1.6-1.9-2.9-3c-1-0.9-2.3-1.8-3.7-2.8
			c-0.5-0.3-0.9-0.8-1.4-1.2c-2.3-1.8-4.8-3.8-8.4-4.8c-10.5-3.1-14.5-0.9-15.3-0.8C615.4,0.9,614.2,1.6,615.9,1.8z"/>
		<path fill="#010103" d="M606.2,84.8c2-1.2,0.6-3.4-0.8-3.4l0.1,0l-0.1,0c-0.3,0-0.6,0.1-0.8,0.3l0.1,0
			C602.4,82.9,604.2,85.9,606.2,84.8z"/>
		<path fill="#010103" d="M620.7,84.5c3.4,0,3-4,0.4-4.1l-0.2,0.1c-0.7,0.2-1.5,0.4-1.8,1.8C618.8,83.5,619.5,84.5,620.7,84.5z"/>
		<path fill="#010103" d="M623,72.3c0.8-1,0-2.9-1.3-2.9h-0.1c-1.1,0-2.4,1-1.9,2.6C620.1,72.9,622.3,73.2,623,72.3z"/>
		<path fill="#010103" d="M617.2,87.2l-0.3,0.1c-2.6,0.4-1.7,4.3,0.9,3.5C620,90.1,619.5,86.9,617.2,87.2z"/>
		<path fill="#010103" d="M616.8,74.8l-0.2,0.1c-1.2,0.2-1.6,1.7-1.2,2.8c0.4,0.9,1.5,1.5,2.7,1C621.1,77.4,619,74,616.8,74.8z"/>
		<path fill="#010103" d="M614.2,68.9c-2.4-0.2-3,3.3-0.5,3.8l0.1,0c1,0.1,2.1-0.7,2.1-2C615.9,69.5,615.3,69,614.2,68.9z"/>
		<path fill="#010103" d="M612.5,85.8c2.9,0.4,3.3-3.8,0.7-4.1h-0.1C610.6,81.4,609.8,85.4,612.5,85.8z"/>
		<path fill="#010103" d="M610.2,75.1c-1.6-0.4-2.8,0.4-2.9,2.1c-0.1,0.6,0.1,1.2,0.5,1.6c0.3,0.3,1,0.6,1.9,0.6l0.1,0
			c1.4-0.2,2.3-1.9,1.8-3.1C611.3,75.8,610.9,75.3,610.2,75.1z"/>
		<path fill="#010103" d="M608.8,91.9c2.7-0.1,3.1-3.7,0.5-4.1l-0.2,0c-1.4,0.1-2.1,0.5-2.2,2C606.9,91,607.6,91.9,608.8,91.9z"/>
		<path fill="#010103" d="M626.3,75.4h-0.2c-1.2,0.1-2.1,0.9-2,1.9c0.1,1.2,1.1,1.9,2.5,1.7C627.9,78.6,628.6,75.8,626.3,75.4z"/>
		<path fill="#010103" d="M629,71.3c0.6-0.2,1.1-0.5,1.9-0.9c1.6-0.7,2.6-1.2,4.5-1.8c0.8-0.2,1.5-0.7,1.3-1.6
			c-0.4-1.4-1.7-0.8-2.5-0.5c-0.5,0.2-1,0.4-1.6,0.6c-1.1,0.4-2.4,1-3.2,1.4c-0.5,0.3-1.4,0.8-1.6,1C627,70.1,627.5,71.3,629,71.3
			L629,71.3z"/>
		<path fill="#010103" d="M675.7,86.4c2.5,0.3,3.6-3.2,1.1-4l-0.2,0C674,81.8,673.3,86.1,675.7,86.4z"/>
		<path fill="#010103" d="M678,71.9l-0.2-0.1c-2-2.1-4.4,1-2.9,2.7C677,76.8,679.3,74,678,71.9z"/>
		<path fill="#010103" d="M679.4,93c3.1,0.2,2.1-3.6,0.2-4l-0.1,0C676.8,88.8,677.3,92.8,679.4,93z"/>
		<path fill="#010103" d="M681.2,76.7l-0.3,0c-2.7,0.2-2.2,4.3,0.4,3.9C683.8,80.1,683,76.6,681.2,76.7z"/>
		<path fill="#010103" d="M684.8,88c1.9-1,0.4-3.9-1.6-3.9l-0.3,0.1C680.3,85,682.4,89.3,684.8,88z"/>
		<path fill="#010103" d="M686.4,73.2c-0.2-0.9-1-1.8-2.3-1.5c-1.1,0.3-1.3,1.3-1,2.3l0.1,0.2C683.7,76.1,686.8,75.3,686.4,73.2z"/>
		<path fill="#010103" d="M686.8,94.7c1.1,0.1,2-0.7,2-1.8c0-1-0.5-1.8-1.6-2l-0.2,0C684.6,90.7,684.3,94.4,686.8,94.7z"/>
		<path fill="#010103" d="M690.2,80c0-1.3-0.8-1.9-1.8-2.1l-0.4,0c-2.7,0.1-2.1,4.4,0.1,4.2C689.2,82,690.2,81.2,690.2,80z"/>
		<path fill="#010103" d="M691.4,89.1c3.1-0.2,2.4-4.5-0.2-4.1l-0.1,0.1c-1.1,0.1-2.1,0.8-2,2.1C689.1,88.4,690.3,89.2,691.4,89.1z"
			/>
		<path fill="#010103" d="M672.5,80.6c2.2-0.2,2.3-3.8-0.2-3.6C670.5,77.2,670,80.8,672.5,80.6z"/>
		<path fill="#010103" d="M671,68.6c-1.5-0.8-3.3-1.6-5.1-1.9c-1.2-0.2-2.1-0.4-3.3-0.4l-0.3,0c-1.1,0.3-1.1,1.1-0.7,1.7
			c0.5,0.6,1.4,0.8,2.9,0.8c1.9,0,2.8,0.7,4.6,1.5c0.8,0.3,1.7,0.8,2.3,0C672.2,69.2,671.8,69,671,68.6z"/>
		<path fill="#010103" d="M717.3,114.1c-1.6,0.4-3.7,1.4-5.9,2.5c-3.2,1.4-5.3,2.4-5.4,3c-0.1,0.4,0.2,0.8,1.1,1.1
			c3.5,1.5,7.1,4.2,10.2,7.6c3.9,4.3,7.1,9.7,10,14.2c1.5,2.4,2.8,4.7,3.9,6.6c1.6,2.7,2.8,4.4,2.9,4.5c0.4,0.5,0.9,1.2,1.3,1.3
			c1.4,0.4,1.3-0.7,0.6-2.3c-0.1-0.2-0.1-0.6-0.1-0.8c-0.9-4.2,0.1-5.5,0.3-6.2c0.1-0.3,0.5-1.7,0.8-2.3c0.7-1.2,1.7-2.1,2.8-3.1
			c1.8-1.7,3.8-3.4,5.7-5c0.7-0.6,1.3-1.3,2-1.9c0.7-0.7,1.4-1.1,2.1-1.8c0.5-0.5,0.9-1.1,1.4-1.7c0.5-0.6,1-1,1.5-1.6
			c0.8-0.8,2.2-2.3,2.3-3.1c0.2-1-0.4-2.4-0.9-3.6c-0.4-0.9-0.8-1.6-1.1-2.3c-0.4-0.7-0.3-1.2-1.2-1.3c-0.8,0-3.5,1.5-7.1-0.8
			c-0.1-0.1-1.2-1.2-1.6-2c-0.5-1-0.8-2.2-1.4-2.4c-0.5-0.2-1.1-0.1-1.8,0c-0.6,0.1-1.4,0.2-2.1,0.4c-1.5,0.4-3.2,0.8-4.6,1.1
			c-1.4,0.3-2.6,0-3.7,0.1c-1.3,0-2.5-0.4-3.6-0.5C723,113.4,720.1,113.3,717.3,114.1z"/>
		<path fill="#010103" d="M741.7,151.5C741.8,151.5,741.8,151.5,741.7,151.5c1,0,1.5-1,2.6-3.8c1.8-4.6,1.6-5.3,1.2-5.7
			c-0.2-0.3-0.6-0.4-1-0.3c-0.7,0.2-2.3,1.9-2.6,2.2l0,0c-0.6,0.7-1.3,1.4-1.7,2.3c-0.3,0.8-0.2,1.7-0.1,2.5
			C740.6,151.5,741.5,151.5,741.7,151.5z"/>
		<path fill="#010103" d="M718.4,138.8c-0.6-0.1-1.7,0.2-2.8,0.3c-1.3,0.1-2.6,0-2.9,0.5c-0.3,0.6,1.1,9.9,3.1,12.5
			c1,1.2,2.5,2.3,4.4,2.8c1.4,0.4,3,0.4,4.3,0.4c2,0.1,3.5-0.1,3.8-0.2c0.6-0.4-3-6-4.5-8.9C722.8,144.4,719.7,139.1,718.4,138.8z"
			/>
		<path fill="#010103" d="M707.6,126.3c-1.2-0.6-2.2-0.9-3.2-1.3c-1.4-0.5-2.7-1-4.2-1c-0.9,0-2,0.3-3.1,0.5
			c-2.8,0.4-5.7,0.7-8.4,0.6c-2.3-0.1-4.4-0.6-6.7-0.8c-2.6-0.2-5.2-0.2-8.1-0.2c-2.1,0-4.8,0.6-6.9,1c-1.6,0.3-3.8,0.5-5,0.8
			c-1.9,0.6-5.3,1.6-10.1,2.2c-2.6,0.3-4.6,0.6-6.1,0.5c-2.5-0.1-4-0.9-5.7-1.2c-2.7-0.5-7.8-2.1-10.8-1.1c-1.8,0.6-2.4,1.3-2.2,3.2
			c0.1,1.1,0.6,3.3,1.3,4.1c0.6,0.7,1.4,0.7,1.7,1.5c0.8,1.7,0,4.8,0.5,8.7c0.5,3.5,1.6,7.6,2.5,9.7c0.9,2.1,2.3,5,3.9,9.2
			c0,0,1.2,2.4,2.9,4.7c-3.1,1-6.2,2.1-9.1,3.1c-3,0.9-5.1,1.5-6.3,2c-0.7,0.3-1.6,0.6-2.3,0.9c-1.1,0.4-1.9,0.8-1.4,1.9
			c0.6,1.3,1.6,2.4,3,2.4c1.8,0.1,4.4-1.3,5.9-1.6c0.2,0,0.6-0.3,1.3-0.5c0.7-0.2,1.6-0.4,2.7-0.7c1.7-0.5,3.7-1.2,5.9-2
			c7.4-2.5,16.6-5.9,18.7-6.8c1.6-0.7,2.7-1.3,3.6-1.7c1.1-0.5,2-0.7,2.4-0.8c1-0.3,2-0.8,3.3-1.2c1.3-0.4,12.6-5,13.8-5.4
			c1.2-0.4,9-2.6,11.7-2.4c2.7,0.2,3.5,0.3,4.6,0.6c0.9,0.3,3.2,1,4.2,1.6c0.1,0.1,0.3,0.1,0.3,0.2c0.7,0.5-1.6-0.3-1.6-0.3
			s-2.5-0.8-3.6-0.9c-1.1-0.1-3.7-0.1-4.5,0.1c-0.6,0.1-1.4,0.3-3.1,0.7c-2.4,0.6-5.6,1.6-7.7,2.4c-0.5,0.2-4.1,1.6-8.7,3.6
			c-3,1.3-6.2,2.9-9.2,4.3c-2.1,1-4.3,1.9-5.8,2.7c-0.3,0.2-2.1,1-4.5,1.9c-4.7,1.9-11.7,4.7-12.6,5c-0.6,0.2-3,0.9-5.8,1.6
			c-3.5,0.8-7.5,1.6-8.8,1.7c-2.3,0.3-2.6,0.4-2.8,1.1c-0.2,0.7,0,2.7,0.5,3.2c0.5,0.5,2,0.7,2.7,0.6c0.3,0,3-0.3,5.8-0.9
			c3.7-0.8,7.9-2,8.7-2.2c0.1,0,0.1,0,0.2-0.1c0,2.8-0.2,6.5-0.1,6.9c0,0.6,0.2,3.8,0.4,4.2c0.1,0.4,0.5,0.5,0.8,0.6
			c0.3,0,1.2,0,1.5,0c0.3,0,7.3-0.8,7.3-0.8s1.4-0.1,2.5-0.3c1.5-0.2,3.2-0.6,3.5-1c0.5-0.6,0.2-10.8,0.2-15.9
			c0.4-0.2,0.7-0.3,0.8-0.4c0.4-0.2,4.5-1.9,9.9-4.2c5.8-2.5,12.9-5.9,19-7.8c3.4-1.1,6.7-1.7,8.9-1.7c1.4,0,2.7,0,3.1,0.4
			c0,0,1,0.3,2.5,1.3c0,0,0,0,0.1,0c0.2-0.2,0.4-0.4,0.6-0.6c1.5-1.4,3.3-3,6.5-3.8c0.7-0.2,1.4-0.3,2.2-0.3c-0.8-1-1.6-1.9-2.4-2.5
			c-0.1,0-1.3-1-2.5-1.7c-0.9-0.5-2.8-1.9-5.9-2.9c-2.5-0.8-5.8-1.4-9.5-1.1c-2.1,0.2-4.5,0.8-7,1.5c-1.8,0.5-3.7,0.9-5.6,1.6
			c-2.4,0.9-4.8,1.9-7.1,2.8c-3.1,1.2-6.1,2.3-8.3,3.2c-2.3,1-4,1.7-4.7,1.9c0-4.9,0.3-14.3,0.1-17.4c0-4.8,0.2-6-0.6-6.6
			c-0.8-0.2-2.2-0.5-3.9-0.6c-1.4-0.1-2.9,0-4.4,0.1c-1.5,0.1-4.4,0.7-4.6,1.3c-0.3,1-0.4,2.4-0.5,4.2c0,0.9,0.1,1.8,0,3
			c-0.2,1.9-0.5,4.1-0.8,5.9c-0.3,1.8-0.7,2.9-0.7,2.9c-0.2,0.5-0.4,1.1-0.6,1.5c-1.3,3.2-3,2.5-4.1,1.3c-0.7-0.7-1.3-2.1-1.6-2.6
			c-1.5-2.2-2.2-5-2.6-7.5c-0.3-1.7-1.3-6.4-0.9-9.2c0.1-0.6,0.2-1.1,0.4-1.5c0.1-0.2,0.2-0.3,0.5-0.4c0.8-0.4,2-0.3,3.4-0.5
			c2-0.3,4.2-1,5.2-1.2c3.5-0.8,5.8-1.7,10.7-1.6c3.9,0.1,5.5,0.9,11.4,1.2c4.5,0.2,9.3,0.3,13.8,0c2.9-0.2,5.6-0.8,8.5-0.6
			c1.8,0.1,3.4,0.4,5.1,0.7c2.2,0.4,4.4,0.1,6.9,0.3c4.1,0.4,8.3,0.6,12.6,0.1c1.5-0.2,4.2-0.4,4.1-0.9
			C715.3,131.8,710.7,127.8,707.6,126.3z M640.3,161.5c0,0,0.4-0.6,0.9-1.7c0.8-1.7,2.1-4.6,3.6-7.7c1.7-3.6,3.5-7.5,4.6-10.3
			c0.4-1,1.3-3.5,2.4-4c2-1.1,3.5,0.3,2.5,2.4c-0.3,0.7-0.6,1.6-1,2.5c-0.3,0.7-0.8,1.5-1,2c-1,2.2-1.5,3.3-2.4,5.6
			c-0.7,1.7-1.1,2.9-2.1,4.9c-0.8,1.6-1.7,3.5-2.7,5.1c-0.4,0.8-1.7,3.5-2.5,3.9C640.8,165.1,639.5,163.1,640.3,161.5z"/>
		<path fill="#010103" d="M729.6,161.2c-6.3-0.1-9.4,0.2-13.2,0c-1.5-0.1-4.5-0.6-7,0c-2.9,0.7-4.3,2.3-5.8,3.7
			c-1.8,1.6-3.2,2.5-2.5,4.3c0.2,0.5,0.5,0.8,0.9,1.1c0.6,0.4,1,0.6,1.5,1c0.9,0.8,1.4,2,3.3,1.5c0.7-0.2,1.3-0.8,1.9-1.4
			c1.1-1.1,1.6-2.5,3.2-3.5c0.6-0.4,1-0.7,1.5-0.8c0.7-0.2,1.5-0.2,2.1-0.3c1.8-0.5,3.8-0.1,6,0.2c4,0.5,8.3,0.8,11.6,1.3
			c2.2,0.3,5,0.5,7.4,0.6c2,0.1,3.3,0.1,5.1-0.7c1.4-0.6,2.9-2.1,4-3.6c2.2-2.7,5.6-9.9,8.3-15.2c0.6-1.2,1.3-3.1,2.1-4.7
			c1.1-2.5,2.4-4.7,2.7-7.4c0.5-4.5-1.8-6.9-0.2-8.2c1.4-1.1,3.7,0.4,5.6-0.3c1.9-0.7,4.5-2,5-2.8c0.1-0.3-0.8-2.1-2.2-4.7
			c-1.7-3.2-4-7.4-6.3-10.9c-1.1-1.6-1.9-3.1-2.7-4c-0.8-1-1.5-2.2-2.2-3.3c-0.9-1.3-2-2.4-2.9-3.8c-1.6-2.4-5.9-7-6-6.7
			c-0.4-0.3-1.9,1.1-2.8,3.2c-0.6,1.4-0.9,4.2-0.9,5.2c0,0.6-0.1,1.4-0.4,1.8c-0.9,1.7-2.8,3.2-2.3,4c0.4,0.7,1.4,0.6,1.7,1.3
			c0.1,0.2,0.4,0.6,0.5,1.1c0.1,0.3,0,0.6,0.1,0.9c0.2,0.9,0.3,2,1,2.8c2.2,2.1,5.8-0.1,7.8,1.1c0.3,0.2,0.7,0.7,1,1.1
			c0.1,0.3,0.3,0.6,0.4,0.9c1.1,2.6,2.7,7,3.7,9.8c0.6,1.7,1,2.1,0.7,2.9c-0.1,0.3-1.1,1.4-2.3,2c-1.4,0.8-4.1,2.3-5,3.8
			c-0.6,1-1.5,2.6-2.2,4.5c-0.6,1.6-1.3,4-1.9,5.8c-0.7,1.8-1.2,3.9-2.2,6.8c-0.4,1.1-0.7,2.1-1.1,3.2c-0.8,2.6-1.5,4.7-2.7,5.6
			c-0.5,0.4-1,0.8-1.6,1c-0.6,0.2-1.6,0.1-2.3,0.1C737.3,161.4,733.3,161.2,729.6,161.2z M751.2,104.3c-0.5,0-1-0.1-1.3-0.2
			c-0.3-0.1-0.8-0.5-0.9-1.5c-0.1-1.2,0.3-1.5,0.5-1.6c0.7-0.3,1.2-0.3,1.6-0.2c0.4,0.1,0.6,0.1,0.9,0.2c0.3,0.1,2.1,0,2.2,1.4
			C754.2,103.7,751.7,104.3,751.2,104.3z"/>
		<path fill="#010103" d="M804.7,214.8c-1.7-1.5-4.2-2.5-6.7-2.6c-4.3-0.3-9.1,0.9-13.8,1.8c-2.8,0.5-5.6,1-8.3,1.3
			c-5.3,0.7-11.9,0.6-15.5-0.9c-2.2-0.9-2.9-1.1-5.1-2.4c-1-0.6-3.3-2.8-4.3-3.9c-1-1.2-2.1-2.4-2.6-3.4c-0.6-1-1.9-2.9-2.9-5.1
			c-1.8-4.1-4-7.4-6.7-6.2c-1.3,0.6-1.5,3-1.4,6.1c0,0.8,0.2,1.6,0.2,2.4c0.1,4.1,0.2,8.3,0.3,9.8c0.5,5.2,0.6,6.7,0.7,10.7
			c0.1,1.3,0.2,2.8,0.3,4.5c0.1,1.7,0.3,4.2,0.4,7c0.1,2-0.1,4.1,0,6.2c0.1,1.3,0.3,3.5,0.4,5.9c0.1,2.1,0,4.5,0.1,6.2
			c0.1,1.6,0.4,2.7,0.7,2.8c0.4,0.2,0.9,0,1.7-0.3c0.9-0.3,2.3-0.7,3.8-1.1c3-0.7,5.7-1.3,8.1-1.5c2.1-0.2,1.1-0.3,3.4-0.2
			c0.2,0,4.2,0.2,4.5,0.2c1.2,0.1,2.3,0.1,3.5,0.3c1.1,0.2,2.2,0.5,3.5,0.3c0.5-0.5,0.9-1.6,1.6-2.8c0.6-1.1,1.4-2.1,2-2.8
			c1.8-2.4,3.7-4.4,5.9-6c4.5-3.2,9.8-5.3,15.5-7.4c1.1-0.4,2.1-1,3.3-1.6c0.6-0.3,1.5-0.6,2.1-1c3.1-1.8,6-4.2,7.2-7.3
			C808.2,220.1,807.2,216.9,804.7,214.8z M801.5,222.5c-0.4,1.7-2,2.8-3.6,3.9c-1.5,1-3.3,2-4.7,2.7c-3.1,1.4-6.3,2.5-9.4,4.1
			c-2.9,1.5-7.4,4.1-10.5,6.6c-3,2.5-4.7,4.6-5,4.8c-1.2,0.7-1.2-0.8-1.2-2.4c0-0.5-0.1-1.1-0.1-1.6c-0.1-2.2-0.4-4.7-0.4-5.6
			c0-2.5-0.3-5-0.4-7.5c0-0.8,0.1-1.6-0.1-2.4c-0.2-1.2,0-2.3,0.6-2.9c0.4-0.4,1.1-0.7,1.8-0.9c1.7-0.5,3.8-0.6,5.7-1
			c3.5-0.7,6.5-1.5,10.1-1.8c1-0.1,2.8-0.3,4.9-0.7c2.6-0.4,5.9-1.1,8.3-0.8c1.2,0.1,2.4,0.8,3.2,1.7
			C801.4,219.6,801.9,220.8,801.5,222.5z"/>
		<path fill="#010103" d="M784.7,224.2c-0.6-0.3-1.7-0.1-2.8,0.1c-0.8,0.2-1.6,0.2-2.4,0.3c-1.4,0.2-2.7,0.5-4,0.8
			c-0.7,0.1-1.3,0.4-1.8,0.5c-0.9,0.2-1.6,0.2-2.1,0.8c-0.2,0.3-0.3,0.9-0.2,1.6c0.1,0.7,0.2,1.6,0.2,2.5c0,0.7,0,1.5,0,2
			c0.1,0.4,0.2,0.6,0.3,0.7c0.4,0.2,1.4-0.5,2.6-1.2c1.3-0.8,3-1.6,4.4-2.1c1.1-0.4,2.6-1.1,3.9-1.7c1.3-0.6,2.7-0.8,2.9-1.3
			c0.2-0.3,0-0.9-0.2-1.5C785.4,225.1,785.2,224.5,784.7,224.2z"/>
		<path fill="#010103" d="M801.6,289.7c0,0.1,0.1,0.3,0.1,0.6c0.6,1.8,1.7,3.2,3.4,0.6c0.4-0.8,0.9-1.7,1.3-2.6c0,0,0-0.1,0.1-0.1
			c0,0,1.1-2.2,2.3-4.6c0.9-1.9,1.7-3.7,2.5-5.7c0.2-0.5,0.4-1,0.7-1.6c0-0.1,0-0.2,0-0.2c0.1-1.1,0.7-2.2-1.2-4.4
			c-0.1-0.1-0.2-0.3-0.3-0.4l0,0c-0.7-0.9-2.9-4.4-3.7-5.4c-0.8-1-1.4-2.1-2.1-3.2c-0.8-1.3-1.6-2.5-2.4-3.8c-0.6-1-1.3-2-1.9-2.9
			c-0.8-1.2-1.8-3.2-2.2-3.7c-0.5-0.7-2.3-3.5-3.3-5.3c-0.6-1.1-1.2-2.2-1.8-3.3c-0.5-0.8-1-1.8-1.4-2.6c-0.2-0.5-0.4-1-0.8-1.1
			c-0.4-0.1-0.9,0-1.4,0.3c-0.9,0.4-1.9,1-2.9,1.6c-1.6,0.9-3.3,2-4,2.5c-2.8,2-5.9,4.8-7.4,8c-1.1,2.2-0.5,2.6,0.2,2.9
			c1.8,0.9,4.7,2.6,6.4,3.7c3,2.1,5.6,4.8,8.2,7.4c0.9,1,2.7,3,3.5,4.2c0.7,1.2,1.6,2.2,2.4,3.4c0.8,1.2,1.5,2.7,2.1,4
			c0.8,2,1.8,4.1,2.3,6.2C800.7,286.5,801.2,287.9,801.6,289.7z"/>
		<path fill="#010103" d="M789.6,315.4L789.6,315.4c2.3-3,4.6-6.2,6.7-9.5c1.2-2.4,2.3-6.6,0.9-13c-0.2-1.1-0.4-2-0.5-2.6
			c-0.2-1-0.4-1.8-0.8-3c-0.6-1.9-1.3-3.6-2.1-5.5c-1.1-2.7-2.6-4.9-4.1-7.3c-1.4-2.2-2.9-4.2-4.8-6.1c-1.8-1.8-4-4-6.2-5.2
			c-1.6-0.8-3-1.8-4.6-2.6c-0.9-0.4-2.7-1.3-4.2-1.9c-0.8-0.3-3-0.9-5.7-1.2c-3.1-0.4-6.7-0.6-9.2-0.3c-3.9,0.4-7.5,1.2-11.1,2.3
			c-2.7,0.8-5.1,1.9-7.4,3.5c-2.8,1.9-6.4,4.8-8.9,7.9c-0.4,0.5-0.7,1.1-1.1,1.6c-1.1,1.4-2,2.7-2.9,4.2c-0.6,1-1.2,2.1-1.8,3.1
			c-0.4,0.8-1.1,2.5-1.5,3.8c-0.4,1.3-0.9,2.6-1.2,3.9c-0.6,2.3-1.1,4.7-1.4,7.1c-0.6,5.2-0.4,10.7,0.7,15.8
			c0.6,2.7,1.6,5.4,2.8,7.9c1.2,2.5,2.4,4.8,3.9,6.9c1.5,2.1,3.4,4,5.5,5.9c1,0.9,2,2,3.1,2.8c1.8,1.3,3.7,2.5,5.7,3.5
			c2.5,1.2,5.3,2.4,8,3.1c0,0,0.1,0,0.1,0c3.6,1.1,8.4,2.1,13.5,2.2l0.5-0.4l1-0.7l0.2-0.2l13.7-10.3c0.9-1.2,0.4-1.1-0.1-0.9
			c-3.4,2.2-7.1,3.6-10.5,4.4c-5.9,1.3-11,0.7-12.7,0.3c-2.6-0.7-8.6-2.1-15-6.5c-4.4-3-8.8-7.3-11.5-14.8
			c-1.3-3.5-2.4-7.6-2.5-12.7c-0.1-6.5,1.8-13.4,4.1-18.2c3.4-7.3,8.6-12.4,14-15.2c6.2-3.2,12.6-3.5,15.7-3.6
			c3.7-0.1,8.1,0.5,12.2,2.1c3.2,1.2,6.7,3.1,9.6,6.1c5.9,6.1,11.1,17.3,11.6,24.1c0.7,8.3-0.4,14.6-2.5,19.6
			C788.4,316.8,789.6,315.4,789.6,315.4z"/>
		<path fill="#010103" d="M581.5,53.1c0.9-1.4,1.9-3.6,4.3-6.5c1.8-2.2,4.2-4.9,9.7-7.2c1-0.4,2.7-1,3.9-1.3
			c17.1-5.4,41.3,12.5,41.8,12.9c0.6,0.4,1,0.7,1.4,0.4c0,0,2.6-3.6,2.3-4.3c-0.2-0.4-3.7-6.1-13.6-13c-5.6-3.9-11.8-8.3-21.3-8.2
			c-23.7,0.2-29.5,22.8-29.7,23.7C580.1,50.8,579.8,55.6,581.5,53.1z"/>
		<path fill="#010103" d="M689,17.6c-3.9,0.2-8.4,0.6-13.3,2.1c-20.8,6.5-29,20.8-29,20.8c-1,0.8,1.1,2.8,1.6,3.4
			c0.4,0.5,0.8,0.8,1.8-0.1c6.3-6.3,13.5-10.2,21-12.9c2.3-0.8,4.9-1.4,7.2-2c3.8-1,8.8-1.4,13.4-1.5c5.5-0.2,8.4,0.4,8.4,0.4
			c9.4,1.8,17.3,12.9,16.6,10.6c-1.6-5.8-4.1-10.3-7-13.7l0,0c-1.7-2-4.2-4-7.6-5.4C698.5,18,694.2,17.4,689,17.6z"/>
		<path fill="#010103" d="M728.9,177.5c-1.6-0.1-2.9,0.2-4.1,0c-1.9-0.3-6-5.4-7.4-8.1c0,0,0,0,0,0c-0.4,0-0.7,0-1,0.1
			c-0.6,0.2-1.1,0.2-1.6,0.3c-0.2,0-0.5,0.1-0.6,0.1c-0.1,0-0.2,0.1-0.4,0.2c-0.1,0.1-0.2,0.2-0.4,0.2c-0.5,0.3-0.8,0.7-1.3,1.4
			c-0.4,0.5-0.8,1.1-1.4,1.7l-0.2,0.2c-0.4,0.3-0.8,0.7-1.3,1.1c0.2,0.7,0.4,1.5,0.6,2.3l0.3,0.9c0,0,3.8,9.6,13,11.4
			c7.7,1.5,10.2-3.4,10.9-5.7C734.2,182.9,734.2,177.8,728.9,177.5z M725.5,185.1c-3.1-0.2-6.2-1.3-8.2-4c-0.8-1.1-5.4-7.9-3.4-8.9
			c1.5,0.1,2.7,3.2,3.3,4.4c1.7,3.7,3.8,5.8,8,5.8c1.1,0,4.6-0.6,4.7,0.9C730.1,185,726.6,185.2,725.5,185.1z"/>
		<path fill="#010103" d="M580.2,35.1c0.9-1.4,2.1-4.6,4.5-7.5c0.2-0.3,0.4-0.5,0.6-0.7c6.1-6.7,14.7-6.9,14.7-6.9v0
			c0.1,0,0.2,0,0.2,0c19.4,0.1,33.3,10.1,39,14.6c1.6,1.2,2.6,2,2.8,2.1c0.9,0.6,0.9,0,0.9,0s3.5-4.3,3.8-4.7
			c0.2-0.4,0.4-0.8,0.2-1.1c-0.4-0.6-4.5-6.8-11.5-11.9c-6.5-4.8-17.3-8.7-24.9-8.4c-9.1,0.3-15.1,2.5-19.6,5.2
			c-5.9,3.5-8.8,8.3-9.9,10.6l0,0c-1.6,3.3-1.9,5.1-2,5.4C578.8,32.8,578.4,37.6,580.2,35.1z"/>
		<path fill="#010103" d="M800.8,91.3c-21-27.2-49.2-48.5-80.9-61.3c1.3,3,2.2,6.3,2.8,9.9c66.1,29.3,110.3,95.5,110.3,169.5
			c0,102.1-83.1,185.3-185.3,185.3c-102.1,0-185.3-83.1-185.3-185.3c0-42.4,15-84.3,42.1-118c18.6-23.1,42.2-41.4,68.3-53.4l0.1-2.3
			c-0.1-2.6,1.1-5.4,1.2-5.9c0.1-0.4,0.2-0.8,0.3-1.3c0,0,0,0,0,0c0-0.1,0-0.1,0.1-0.2c-28.9,12.5-56,32.8-76.4,58.1
			c-28.3,35.1-43.9,78.8-43.9,123.1c0,106.6,86.7,193.3,193.3,193.3S841,315.9,841,209.3C841,166.2,827.1,125.3,800.8,91.3z"/>
	</g>
</g>
</svg>
