<svg id="Group_1032" data-name="Group 1032" xmlns="http://www.w3.org/2000/svg" width="7.155" height="7.392" viewBox="0 0 7.155 7.392">
  <path id="Path_451" data-name="Path 451" d="M118.445,3.526,114.993.074a.233.233,0,0,0-.341,0l-.37.37a.233.233,0,0,0,0,.341L117.193,3.7l-2.911,2.911a.233.233,0,0,0,0,.341l.37.37a.233.233,0,0,0,.34,0l3.452-3.451a.233.233,0,0,0,0-.341Z" transform="translate(-111.364)" fill="#ffa502"/>
  <path id="Path_452" data-name="Path 452" d="M8.881,3.7a.234.234,0,0,0-.074-.17L5.355.074a.233.233,0,0,0-.341,0l-.37.37a.233.233,0,0,0,0,.341L7.555,3.7,4.644,6.607a.233.233,0,0,0,0,.341l.37.37a.233.233,0,0,0,.341,0L8.806,3.866A.234.234,0,0,0,8.881,3.7Z" transform="translate(-4.57)" fill="#ffa502"/>
</svg>
