<?xml version="1.0" encoding="utf-8"?>
<!-- Generator: Adobe Illustrator 18.1.0, SVG Export Plug-In . SVG Version: 6.00 Build 0)  -->
<svg version="1.1" id="Layer_1" xmlns="http://www.w3.org/2000/svg" xmlns:xlink="http://www.w3.org/1999/xlink" x="0px" y="0px"
	 viewBox="0 0 1012.2 288.8" enable-background="new 0 0 1012.2 288.8" xml:space="preserve">
<g>
	<path fill="#2F2B26" d="M960.3,63.8h2.4v-2.4h-4v7h1.5V63.8z M953,63.8h2.4v-2.4h-4v7h1.5V63.8z M822.9,0v184.7h96.8v-55.6h16.5
		v55.6h2.1v-61h29.9v60.7h2.1v-55.6h16.5v55.6h22.3V0H822.9z M953.3,31.1l16.5,10.1h-33L953.3,31.1z M936.8,43h33.3l1.8,12.2h-36.6
		L936.8,43z M983.5,127h-12.8v-5.2h-34.5v5.2h-12.8v-11.6h2.4V77.2h3.7V57.4h48.2v19.8h3.7v38.5h2.1V127z M961.5,115.4h2.7V90h6.1
		v-4.6h-8.9V115.4z M933.7,81.2h39.7l1.8-2.4h-43.3L933.7,81.2z M949,115.4h2.7V90h6.1v-4.6H949V115.4z M945.6,63.8h2.4v-2.4h-4v7
		h1.5V63.8z M936.5,115.4h2.7V90h6.1v-4.6h-8.9V115.4z M953.6,131.9c-4.6,0-8.5,3.7-8.5,8.5c0,4.6,3.7,8.2,8.5,8.2
		c4.6,0,8.2-3.7,8.2-8.2C961.8,135.5,958.2,131.9,953.6,131.9z M953.6,146.8c-3.7,0-6.4-3.1-6.4-6.4c0-3.7,3.1-6.4,6.4-6.4
		c3.7,0,6.4,3.1,6.4,6.4S957.2,146.8,953.6,146.8z"/>
	<g>
		<path fill="#2F2B26" d="M58.6,261v-41.5h-14v42.4c0,4.3-0.9,7.9-3.4,10.4c-2.4,2.7-6.4,4.3-11.9,4.3c-4.9,0-8.9-1.5-11.3-4.3
			c-2.4-2.4-4-6.1-4-11v-41.8H0v42.7c0,7.9,2.1,14.7,6.7,18.9c4.9,4.9,12.2,7,22.3,7c10.4,0,17.7-2.7,22.6-7.9
			C56.5,275.9,58.6,269.2,58.6,261L58.6,261z"/>
		<path fill="#2F2B26" d="M140.1,287.5v-67.8h-14v34.5c0,2.7,0,7.3,0.3,10.4h-0.3c-1.8-2.7-3.7-5.5-6.4-8.9l-28.4-36.3H76.9v68.1h14
			v-37.2c0-3.1,0-7.3-0.3-9.5H91c2.1,3.1,4,5.5,6.4,8.9l29.6,37.9L140.1,287.5L140.1,287.5z"/>
		<polygon fill="#2F2B26" points="173.1,287.5 173.1,219.5 159,219.5 159,287.5 		"/>
		<path fill="#2F2B26" d="M248.8,219.5h-14.3l-15.3,36.6c-1.8,4.6-3.4,8.5-4.6,12.2h-0.3c-1.2-4-2.7-8.2-4.6-12.5l-13.7-36h-15.6
			l27.8,68.4h10.4L248.8,219.5L248.8,219.5z"/>
		<polygon fill="#2F2B26" points="296.1,287.5 296.1,275.9 270.8,275.9 270.8,258.5 292.4,258.5 292.4,246.9 270.8,246.9 
			270.8,231.1 292.4,231.1 296.1,219.5 256.7,219.5 256.7,287.5 		"/>
		<path fill="#2F2B26" d="M363.8,287.5c-10.1-17.4-16.8-28.7-20.1-30.8l0,0c6.4-2.7,12.2-8.9,12.2-17.4c0-10.4-6.4-19.5-24.7-19.5
			h-19.8v67.8h14v-26.3h5.2c2.4,0.9,6.7,8.5,16.8,26.3H363.8L363.8,287.5z M342.2,240.5c0,5.8-4.6,10.4-10.4,10.4h-6.1v-19.5h6.1
			C338.2,231.4,342.2,235.3,342.2,240.5L342.2,240.5z"/>
		<path fill="#2F2B26" d="M413.3,268.3c0-21.4-29.3-20.1-29.3-32.1c0-4,4-6.1,8.9-6.1c5.5,0,10.4,1.8,16.2,4.9l0.3-12.2
			c-4-2.1-10.1-4-17.1-4c-15,0-23.2,9.2-23.2,19.5c0,5.2,1.8,9.2,4.3,12.2c8.2,9.5,24.7,11,24.7,19.8c0,5.2-5.5,7-10.4,7
			c-6.1,0-11.3-2.4-15.6-5.2l-5.5,10.1c4.9,3.1,11.9,6.4,21.7,6.4C402.3,288.5,413.3,280.8,413.3,268.3L413.3,268.3z"/>
		<polygon fill="#2F2B26" points="438.9,287.5 438.9,219.5 424.9,219.5 424.9,287.5 		"/>
		<polygon fill="#2F2B26" points="504.3,219.5 448.7,219.5 448.7,231.1 468.9,231.1 468.9,287.5 482.9,287.5 482.9,231.1 
			501.2,231.1 		"/>
		<path fill="#2F2B26" d="M566.5,219.5h-14.7l-10.4,19.2c-1.5,2.7-3.4,6.4-4.9,9.5h-0.3c-1.5-3.1-3.4-7-4.9-9.8L521,219.5h-15.6
			l23.5,40.9v26.9h14v-26.6L566.5,219.5L566.5,219.5z"/>
		<path fill="#2F2B26" d="M664.2,253.4c0-9.5-2.7-18-8.5-24.1c-6.1-6.7-15.3-10.4-26.6-10.4c-10.4,0-19.2,3.7-25.3,10.1
			c-6.4,6.4-9.8,15.3-9.8,25.3c0,10.4,3.7,19.8,10.7,25.9c6.1,5.5,14.3,8.2,24.1,8.2c10.7,0,19.2-4,25.6-10.1
			C660.9,272.3,664.2,263.1,664.2,253.4L664.2,253.4z M649.3,253.7c0,15-8.5,23.5-20.1,23.5s-20.5-8.5-20.5-23.5
			c0-15,8.5-23.5,20.5-23.5C640.7,230.2,649.3,239,649.3,253.7L649.3,253.7z"/>
		<polygon fill="#2F2B26" points="716.7,219.5 677.3,219.5 677.3,287.5 691.4,287.5 691.4,258.8 712.7,258.8 712.7,247.2 
			691.4,247.2 691.4,231.1 713,231.1 		"/>
		<polygon fill="#2F2B26" points="789.1,287.2 789.1,275.6 764.9,275.6 764.9,219.8 751.2,219.8 751.2,287.2 		"/>
		<polygon fill="#2F2B26" points="837.3,287.2 837.3,275.9 812.3,275.9 812.3,258.5 833.9,258.5 833.9,246.9 812.3,246.9 
			812.3,231.1 833.6,231.1 837.6,219.8 798.2,219.8 798.2,287.2 		"/>
		<polygon fill="#2F2B26" points="888.9,287.2 888.9,275.9 863.8,275.9 863.8,258.5 885.2,258.5 885.2,246.9 863.8,246.9 
			863.8,231.1 885.2,231.1 888.9,219.8 849.5,219.8 849.5,287.2 		"/>
		<path fill="#2F2B26" d="M961.2,253c0-20.1-13.7-33.3-37.9-33.3h-22.6v67.8h21.4C945.6,287.2,961.2,273.8,961.2,253L961.2,253z
			 M946.3,253.4c0,11.9-6.4,22.3-23.2,22.3h-7.6v-44.3h7.6C938,231.4,946.3,239.9,946.3,253.4L946.3,253.4z"/>
		<path fill="#2F2B26" d="M1012.2,268.3c0-21.4-29-20.1-29-32.1c0-4,4-6.1,8.9-6.1c5.5,0,10.4,1.8,16.2,4.9l0.3-12.2
			c-4-2.1-9.8-4-17.1-4c-15,0-22.9,9.2-22.9,19.2c0,5.2,1.8,9.2,4.3,11.9c8.2,9.5,24.7,11,24.7,19.8c0,5.2-5.5,7-10.4,7
			c-6.1,0-11.3-2.4-15.6-5.2l-5.5,10.1c4.9,3.1,11.9,6.4,21.7,6.4C1001.5,288.5,1012.2,280.5,1012.2,268.3L1012.2,268.3z"/>
	</g>
</g>
</svg>
